<svg width="502" height="347" viewBox="0 0 502 347" fill="none" xmlns="http://www.w3.org/2000/svg">
<g clip-path="url(#clip0_70_14073)">
<rect width="502" height="347" rx="16" fill="url(#paint0_linear_70_14073)"/>
<path d="M122.062 199.569C44.6555 196.812 -31.581 264.541 -60.0234 298.75V347H781.001V33.7569C719.761 8.1001 758.954 34.9057 598.098 92.3464C437.242 149.787 426.219 239.777 324.561 255.478C222.904 271.178 218.821 203.015 122.062 199.569Z" fill="url(#paint1_linear_70_14073)"/>
<path d="M-10.0056 251.06C-89.7308 290.893 -61.7859 296.875 -75 289.044V324.333H691.156V227.356C683.113 222.058 661.668 200.377 625.022 205.333C579.213 211.529 564.384 239.333 447.833 262C305.162 289.746 289.984 235.792 226.97 217.658C184.483 205.432 82.105 290.117 5.7511 251.534C0.804298 249.035 -5.04755 248.583 -10.0056 251.06Z" fill="url(#paint2_linear_70_14073)"/>
</g>
<rect x="0.5" y="0.5" width="501" height="346" rx="15.5" stroke="url(#paint3_linear_70_14073)"/>
<defs>
<linearGradient id="paint0_linear_70_14073" x1="417.939" y1="13.9065" x2="9.3244" y2="302.344" gradientUnits="userSpaceOnUse">
<stop stop-color="#1B1D2C"/>
<stop offset="1" stop-color="#12131E"/>
</linearGradient>
<linearGradient id="paint1_linear_70_14073" x1="360.489" y1="24" x2="360.489" y2="347" gradientUnits="userSpaceOnUse">
<stop offset="0.163214" stop-color="#5A63D3" stop-opacity="0.7"/>
<stop offset="1" stop-color="#141520" stop-opacity="0"/>
</linearGradient>
<linearGradient id="paint2_linear_70_14073" x1="308.078" y1="168.5" x2="308.078" y2="324.333" gradientUnits="userSpaceOnUse">
<stop stop-color="#4ADEFF" stop-opacity="0.5"/>
<stop offset="1" stop-color="#141521" stop-opacity="0"/>
</linearGradient>
<linearGradient id="paint3_linear_70_14073" x1="369.396" y1="-4.61176e-07" x2="158.703" y2="306.684" gradientUnits="userSpaceOnUse">
<stop stop-color="#2A2D46"/>
<stop offset="1" stop-color="#171928"/>
</linearGradient>
<clipPath id="clip0_70_14073">
<rect width="502" height="347" rx="16" fill="white"/>
</clipPath>
</defs>
</svg>
