<svg width="24" height="24" viewBox="0 0 24 24" fill="none" xmlns="http://www.w3.org/2000/svg">
<path d="M17.3324 7.46021L17.3323 7.46015L17.326 7.46653L13.1338 11.6732L12.7822 12.0261L13.1337 12.379L17.3173 16.58C17.4109 16.6835 17.462 16.8193 17.4595 16.9598C17.457 17.1028 17.3993 17.2388 17.299 17.3395C17.1987 17.4401 17.0637 17.4974 16.9226 17.4999C16.784 17.5024 16.6494 17.4517 16.5464 17.358L12.3601 13.1572L12.0061 12.8019L11.6519 13.157L7.46277 17.3565C7.35972 17.4503 7.22515 17.501 7.08645 17.4985C6.94532 17.496 6.81036 17.4387 6.71009 17.3381C6.60976 17.2374 6.55202 17.1014 6.54951 16.9584C6.54704 16.8179 6.59809 16.6822 6.69166 16.5787L10.878 12.3792L11.2297 12.0264L10.8782 11.6734L6.68741 7.46525L6.68109 7.45891L6.67456 7.4528C6.62079 7.40254 6.57757 7.34184 6.54756 7.27428C6.51755 7.20672 6.50139 7.13372 6.50009 7.05966C6.49878 6.9856 6.51237 6.91207 6.53999 6.84347C6.56761 6.77487 6.60868 6.71267 6.66066 6.66052C6.71264 6.60837 6.77447 6.56735 6.84242 6.53982C6.91036 6.51229 6.98308 6.49879 7.05626 6.50009C7.12943 6.50138 7.20164 6.51745 7.26859 6.54737C7.33554 6.57729 7.39591 6.62049 7.44604 6.67446L7.45204 6.68092L7.45827 6.68717L11.6518 10.8939L12.0059 11.249L12.36 10.8939L16.5549 6.68723L16.555 6.68728L16.5609 6.68113C16.6114 6.6287 16.6718 6.58698 16.7384 6.55832C16.805 6.52966 16.8765 6.51461 16.9489 6.51402C17.0212 6.51342 17.093 6.52729 17.1601 6.55484C17.2271 6.5824 17.2881 6.62311 17.3395 6.6747C17.3909 6.72628 17.4316 6.7877 17.4592 6.85542C17.4868 6.92314 17.5006 6.99574 17.5 7.06898C17.4993 7.14222 17.4841 7.21455 17.4553 7.28174C17.4265 7.34893 17.3847 7.40958 17.3324 7.46021Z" fill="url(#paint0_linear_127_32986)" stroke="#5A63D3"/>
<defs>
<linearGradient id="paint0_linear_127_32986" x1="5.52273" y1="6" x2="20.1412" y2="8.90096" gradientUnits="userSpaceOnUse">
<stop offset="0.119792" stop-color="#767BF3"/>
<stop offset="1" stop-color="#3AD8C5"/>
</linearGradient>
</defs>
</svg>
