<svg width="124" height="49" viewBox="0 0 124 49" fill="none" xmlns="http://www.w3.org/2000/svg">
<path d="M19.3232 2.12368C21.1182 2.12334 22.7635 1.32831 24.3831 0.000334474C24.3817 0.000334474 24.3802 0 24.3787 0C23.4289 0 22.496 0.0681991 21.5743 0.174492C20.6599 0.607982 19.7375 0.803359 18.7858 0.700642C18.7663 0.698437 18.746 0.690784 18.7263 0.688411C17.9165 0.881582 17.124 1.11525 16.3477 1.38735C17.1206 1.762 17.8807 2.00161 18.6307 2.08495C18.8647 2.11075 19.0946 2.12368 19.3232 2.12368Z" fill="url(#paint0_linear_2002_306)"/>
<path d="M18.5442 6.72963C22.0271 6.72963 25.072 4.00732 28.262 0.339479C27.7134 0.25103 27.1651 0.163817 26.6051 0.112793C23.649 3.4111 20.8542 5.69209 17.8435 5.29025C16.365 5.09637 14.818 4.24881 13.1842 2.74615C12.755 2.96926 12.3397 3.21178 11.9258 3.45905C13.9076 5.3671 15.8031 6.42812 17.6612 6.67182C17.9592 6.71058 18.253 6.72963 18.5442 6.72963Z" fill="url(#paint1_linear_2002_306)"/>
<path d="M16.5895 11.3041C16.9704 11.3626 17.3446 11.3898 17.7146 11.3898C22.4463 11.3898 26.4366 6.85604 31.0037 1.66582C31.1765 1.46958 31.352 1.27076 31.5265 1.07301C31.0313 0.920975 30.5218 0.803989 30.0138 0.683228C29.9956 0.703978 29.9769 0.724897 29.9589 0.745481C25.3033 6.03568 21.2859 10.6035 16.7976 9.92733C14.5501 9.58757 12.2261 7.94172 9.75531 4.92079C9.39479 5.19256 9.03204 5.46021 8.6875 5.75102C11.4202 9.08925 14.0271 10.9174 16.5895 11.3041Z" fill="url(#paint2_linear_2002_306)"/>
<path d="M15.4216 15.991C15.8706 16.0671 16.3155 16.1039 16.7549 16.1039C21.673 16.1039 26.0156 11.5095 30.5909 6.66763C31.9684 5.21004 33.3575 3.74056 34.7822 2.36343C34.3339 2.15051 33.884 1.94338 33.4211 1.75769C32.0943 3.05455 30.8157 4.4011 29.5774 5.71123C24.8552 10.7069 20.3724 15.4209 15.6557 14.6169C12.8641 14.1412 9.97991 11.7419 6.94929 7.36897C6.61531 7.71114 6.29797 8.06911 5.98438 8.43049C9.19407 12.9908 12.2905 15.4568 15.4216 15.991Z" fill="url(#paint3_linear_2002_306)"/>
<path d="M14.1745 20.739C14.7065 20.8397 15.2316 20.8873 15.7513 20.8873C20.7769 20.8859 25.2923 16.4141 30.0458 11.7041C32.7312 9.04371 35.46 6.35168 38.3313 4.4176C37.9158 4.12629 37.4849 3.85827 37.0512 3.59265C34.2762 5.56229 31.6508 8.15314 29.0649 10.7151C24.0869 15.6468 19.3851 20.3037 14.433 19.3691C11.185 18.756 7.92754 15.7424 4.57193 10.2181C4.2733 10.6345 3.99118 11.0613 3.71875 11.4967C7.19359 17.0691 10.6045 20.0644 14.1745 20.739Z" fill="url(#paint4_linear_2002_306)"/>
<path d="M12.8799 25.5579C13.4635 25.6776 14.0431 25.7347 14.6199 25.7347C19.7816 25.7347 24.6562 21.1812 29.3852 16.7624C33.5412 12.8784 37.7943 8.92368 42.2784 7.88137C41.9029 7.47441 41.5182 7.07835 41.1162 6.69775C36.6523 8.07284 32.501 11.9449 28.4342 15.7434C23.2059 20.6275 18.281 25.2476 13.1601 24.1933C9.57256 23.4552 6.09892 19.9214 2.6151 13.4596C2.35934 13.9673 2.10338 14.4749 1.88281 15.0021C5.43504 21.294 9.06034 24.7718 12.8799 25.5579Z" fill="url(#paint5_linear_2002_306)"/>
<path d="M11.5497 30.461C12.1891 30.6012 12.8245 30.6678 13.4585 30.6678C18.6691 30.6678 23.7124 26.1851 28.6074 21.8343C34.6577 16.4546 40.4204 11.3419 46.3578 13.9003C46.0612 13.281 45.7432 12.6759 45.397 12.0865C39.2486 10.5238 33.3875 15.7213 27.6822 20.7921C22.2117 25.6531 17.0446 30.2406 11.8504 29.1006C8.0497 28.2625 4.51315 24.3588 1.07643 17.2185C0.869295 17.8908 0.695838 18.5773 0.546875 19.2728C3.97527 25.9075 7.59396 29.5883 11.5497 30.461Z" fill="url(#paint6_linear_2002_306)"/>
<path d="M10.2185 35.4567C10.892 35.6132 11.5641 35.6866 12.2361 35.6866C17.4658 35.6866 22.6737 31.2392 27.7279 26.9225C35.0911 20.6332 42.0458 14.6986 48.6367 21.9581C48.56 21.1833 48.4411 20.4211 48.2933 19.6691C41.2308 13.5631 33.914 19.8036 26.8232 25.8627C21.3826 30.5101 15.7598 35.3084 10.5342 34.1004C6.72008 33.211 3.31228 29.2299 0.122968 21.9523C0.0435413 22.7513 0 23.5604 0 24.3798C0 24.607 0.0279036 24.827 0.0340185 25.0529C3.09508 31.161 6.44184 34.5765 10.2185 35.4567Z" fill="url(#paint7_linear_2002_306)"/>
<path d="M42.5058 22.4641C37.0965 21.6369 31.392 26.3741 25.8631 30.9589C20.2334 35.6281 14.4283 40.47 9.2354 39.2007C6.02246 38.4194 3.20984 35.3563 0.660156 29.9156C1.28037 32.5717 2.33474 35.0567 3.74622 37.3021C5.34578 39.0095 7.05592 40.1044 8.90616 40.5544C9.59046 40.7217 10.2775 40.7993 10.9673 40.7993C16.1806 40.7993 21.545 36.3505 26.7529 32.031C32.0424 27.6435 37.4938 23.1103 42.2936 23.8409C44.5392 24.1878 46.5451 25.6691 48.4113 28.3312C48.5179 27.6812 48.6068 27.0265 48.6609 26.3605C46.8042 24.1065 44.7778 22.8148 42.5058 22.4641Z" fill="url(#paint8_linear_2002_306)"/>
<path d="M42.2423 27.5632C36.7487 26.3728 30.6742 31.3154 24.8024 36.0947C20.0207 39.9857 15.1024 43.9759 10.6914 44.5392C11.254 44.9225 11.8395 45.2726 12.4344 45.6087C16.7704 44.4208 21.28 40.7567 25.6813 37.1749C31.2973 32.6037 37.0929 27.8815 41.9471 28.9236C43.8878 29.345 45.6163 30.6659 47.1863 32.92C47.3826 32.3976 47.5754 31.8743 47.7361 31.3358C46.104 29.2631 44.2899 28.0067 42.2423 27.5632Z" fill="url(#paint9_linear_2002_306)"/>
<path d="M23.6448 41.2837C21.0235 43.3985 18.3629 45.5413 15.7891 47.1664C16.3378 47.3742 16.889 47.5749 17.4557 47.7432C19.8021 46.1715 22.1758 44.2587 24.5196 42.368C30.4989 37.5437 36.6836 32.5508 41.6343 33.8759C43.0456 34.2522 44.3277 35.1279 45.4996 36.5074C45.744 36.0836 45.9709 35.6503 46.1899 35.2109C44.925 33.8443 43.5353 32.9415 41.9935 32.5304C36.3543 31.0216 29.8948 36.2417 23.6448 41.2837Z" fill="url(#paint10_linear_2002_306)"/>
<path d="M22.3882 46.546C21.6358 47.1534 20.8802 47.7632 20.125 48.3629C20.7478 48.4733 21.3725 48.5775 22.0108 48.6394C22.4267 48.3051 22.8439 47.9687 23.263 47.6303C29.6449 42.4754 36.2555 37.1614 41.3586 38.7164C42.0416 38.9256 42.6854 39.2754 43.3034 39.7229C43.5973 39.361 43.8684 38.981 44.1415 38.6028C43.3942 38.0569 42.6065 37.6418 41.7668 37.3845C35.9426 35.6063 29.0518 41.1653 22.3882 46.546Z" fill="url(#paint11_linear_2002_306)"/>
<path d="M24.9727 48.7295C25.8364 48.7085 26.6874 48.6418 27.527 48.5328C31.9458 45.2304 36.2355 42.7511 39.8637 43.1972C40.3079 42.8312 40.7242 42.4343 41.1412 42.0384C36.2901 40.7102 30.6454 44.2939 24.9727 48.7295Z" fill="url(#paint12_linear_2002_306)"/>
<path d="M59.064 22V5.08H65.952C67.776 5.08 69.176 5.464 70.152 6.232C71.128 7 71.616 8.08 71.616 9.472C71.616 10.528 71.296 11.408 70.656 12.112C70.032 12.816 69.176 13.288 68.088 13.528V13.168C69.336 13.312 70.304 13.744 70.992 14.464C71.696 15.184 72.048 16.136 72.048 17.32C72.048 18.824 71.544 19.984 70.536 20.8C69.528 21.6 68.104 22 66.264 22H59.064ZM61.224 20.224H66.048C67.232 20.224 68.16 20 68.832 19.552C69.52 19.088 69.864 18.328 69.864 17.272C69.864 16.2 69.52 15.44 68.832 14.992C68.16 14.544 67.232 14.32 66.048 14.32H61.224V20.224ZM61.224 12.544H65.64C66.904 12.544 67.848 12.304 68.472 11.824C69.096 11.328 69.408 10.616 69.408 9.688C69.408 8.76 69.096 8.056 68.472 7.576C67.848 7.08 66.904 6.832 65.64 6.832H61.224V12.544ZM74.7028 22V12.88C74.7028 12.4 74.6868 11.912 74.6548 11.416C74.6388 10.904 74.5988 10.408 74.5348 9.928H76.6468L76.9108 12.952L76.5508 12.976C76.7108 12.24 76.9828 11.632 77.3668 11.152C77.7668 10.656 78.2388 10.296 78.7828 10.072C79.3428 9.832 79.9188 9.712 80.5108 9.712C80.7668 9.712 80.9828 9.72 81.1588 9.736C81.3348 9.752 81.5108 9.792 81.6868 9.856L81.6388 11.8C81.3988 11.704 81.1748 11.648 80.9668 11.632C80.7748 11.6 80.5348 11.584 80.2468 11.584C79.5428 11.584 78.9348 11.744 78.4228 12.064C77.9268 12.384 77.5428 12.808 77.2708 13.336C77.0148 13.864 76.8868 14.432 76.8868 15.04V22H74.7028ZM87.6204 22.216C86.5644 22.216 85.6364 21.968 84.8364 21.472C84.0364 20.976 83.4124 20.256 82.9644 19.312C82.5164 18.368 82.2924 17.248 82.2924 15.952C82.2924 14.656 82.5164 13.544 82.9644 12.616C83.4124 11.672 84.0364 10.952 84.8364 10.456C85.6364 9.96 86.5644 9.712 87.6204 9.712C88.6924 9.712 89.6204 9.984 90.4044 10.528C91.2044 11.056 91.7324 11.784 91.9884 12.712H91.7004L91.9644 9.928H94.0764C94.0284 10.408 93.9804 10.888 93.9324 11.368C93.9004 11.848 93.8844 12.32 93.8844 12.784V22H91.7004V19.24H91.9644C91.7084 20.152 91.1804 20.88 90.3804 21.424C89.5964 21.952 88.6764 22.216 87.6204 22.216ZM88.1244 20.488C89.2124 20.488 90.0844 20.104 90.7404 19.336C91.3964 18.568 91.7244 17.44 91.7244 15.952C91.7244 14.464 91.3964 13.344 90.7404 12.592C90.0844 11.84 89.2124 11.464 88.1244 11.464C87.0364 11.464 86.1564 11.84 85.4844 12.592C84.8284 13.344 84.5004 14.464 84.5004 15.952C84.5004 17.44 84.8284 18.568 85.4844 19.336C86.1404 20.104 87.0204 20.488 88.1244 20.488ZM97.0637 22V12.784C97.0637 12.32 97.0477 11.848 97.0157 11.368C96.9837 10.888 96.9357 10.408 96.8717 9.928H98.9837L99.2237 12.52H98.9357C99.3037 11.608 99.8717 10.912 100.64 10.432C101.408 9.952 102.304 9.712 103.328 9.712C104.752 9.712 105.824 10.104 106.544 10.888C107.264 11.656 107.624 12.856 107.624 14.488V22H105.44V14.608C105.44 13.504 105.224 12.712 104.792 12.232C104.36 11.736 103.688 11.488 102.776 11.488C101.688 11.488 100.824 11.816 100.184 12.472C99.5597 13.128 99.2477 14.016 99.2477 15.136V22H97.0637ZM115.325 22.216C114.269 22.216 113.341 21.968 112.541 21.472C111.741 20.976 111.117 20.256 110.669 19.312C110.221 18.368 109.997 17.248 109.997 15.952C109.997 14.656 110.221 13.544 110.669 12.616C111.117 11.672 111.741 10.952 112.541 10.456C113.341 9.96 114.269 9.712 115.325 9.712C116.381 9.712 117.301 9.976 118.085 10.504C118.885 11.032 119.421 11.76 119.693 12.688H119.405V4.336H121.589V22H119.429V19.192H119.693C119.437 20.136 118.909 20.88 118.109 21.424C117.325 21.952 116.397 22.216 115.325 22.216ZM115.829 20.488C116.917 20.488 117.789 20.104 118.445 19.336C119.117 18.568 119.453 17.44 119.453 15.952C119.453 14.464 119.117 13.344 118.445 12.592C117.789 11.84 116.917 11.464 115.829 11.464C114.741 11.464 113.861 11.84 113.189 12.592C112.533 13.344 112.205 14.464 112.205 15.952C112.205 17.44 112.533 18.568 113.189 19.336C113.861 20.104 114.741 20.488 115.829 20.488ZM59.064 42V25.08H60.792L71.4 39.096H70.824V25.08H72.912V42H71.208L60.6 27.984H61.152V42H59.064ZM80.9051 42.216C79.8491 42.216 78.9211 41.968 78.1211 41.472C77.3211 40.976 76.6971 40.256 76.2491 39.312C75.8011 38.368 75.5771 37.248 75.5771 35.952C75.5771 34.656 75.8011 33.544 76.2491 32.616C76.6971 31.672 77.3211 30.952 78.1211 30.456C78.9211 29.96 79.8491 29.712 80.9051 29.712C81.9771 29.712 82.9051 29.984 83.6891 30.528C84.4891 31.056 85.0171 31.784 85.2731 32.712H84.9851L85.2491 29.928H87.3611C87.3131 30.408 87.2651 30.888 87.2171 31.368C87.1851 31.848 87.1691 32.32 87.1691 32.784V42H84.9851V39.24H85.2491C84.9931 40.152 84.4651 40.88 83.6651 41.424C82.8811 41.952 81.9611 42.216 80.9051 42.216ZM81.4091 40.488C82.4971 40.488 83.3691 40.104 84.0251 39.336C84.6811 38.568 85.0091 37.44 85.0091 35.952C85.0091 34.464 84.6811 33.344 84.0251 32.592C83.3691 31.84 82.4971 31.464 81.4091 31.464C80.3211 31.464 79.4411 31.84 78.7691 32.592C78.1131 33.344 77.7851 34.464 77.7851 35.952C77.7851 37.44 78.1131 38.568 78.7691 39.336C79.4251 40.104 80.3051 40.488 81.4091 40.488ZM90.3484 42V32.784C90.3484 32.32 90.3324 31.848 90.3004 31.368C90.2684 30.888 90.2204 30.408 90.1564 29.928H92.2684L92.5084 32.52H92.2204C92.5404 31.624 93.0524 30.936 93.7564 30.456C94.4604 29.96 95.3004 29.712 96.2764 29.712C97.2684 29.712 98.0844 29.952 98.7244 30.432C99.3644 30.896 99.7964 31.632 100.02 32.64H99.6604C99.9644 31.744 100.5 31.032 101.268 30.504C102.036 29.976 102.932 29.712 103.956 29.712C105.284 29.712 106.284 30.104 106.956 30.888C107.628 31.656 107.964 32.856 107.964 34.488V42H105.78V34.608C105.78 33.504 105.588 32.712 105.204 32.232C104.82 31.736 104.212 31.488 103.38 31.488C102.404 31.488 101.636 31.824 101.076 32.496C100.516 33.152 100.236 34.048 100.236 35.184V42H98.0524V34.608C98.0524 33.504 97.8604 32.712 97.4764 32.232C97.1084 31.736 96.5004 31.488 95.6524 31.488C94.6764 31.488 93.9084 31.824 93.3484 32.496C92.8044 33.152 92.5324 34.048 92.5324 35.184V42H90.3484ZM116.552 42.216C114.632 42.216 113.112 41.664 111.992 40.56C110.888 39.456 110.336 37.936 110.336 36C110.336 34.72 110.576 33.616 111.056 32.688C111.552 31.744 112.232 31.016 113.096 30.504C113.96 29.976 114.968 29.712 116.12 29.712C117.224 29.712 118.16 29.952 118.928 30.432C119.696 30.896 120.28 31.56 120.68 32.424C121.08 33.288 121.28 34.312 121.28 35.496V36.216H112.04V34.92H119.792L119.384 35.232C119.384 33.984 119.104 33.016 118.544 32.328C118 31.64 117.192 31.296 116.12 31.296C114.952 31.296 114.048 31.704 113.408 32.52C112.768 33.32 112.448 34.416 112.448 35.808V36.024C112.448 37.496 112.808 38.608 113.528 39.36C114.264 40.112 115.28 40.488 116.576 40.488C117.296 40.488 117.968 40.384 118.592 40.176C119.216 39.968 119.816 39.624 120.392 39.144L121.112 40.656C120.568 41.152 119.888 41.536 119.072 41.808C118.272 42.08 117.432 42.216 116.552 42.216Z" fill="#EEF1FF"/>
<defs>
<linearGradient id="paint0_linear_2002_306" x1="18.7849" y1="-2.35943" x2="49.5699" y2="57.1117" gradientUnits="userSpaceOnUse">
<stop stop-color="#00FFFF"/>
<stop offset="1" stop-color="#FF00FF"/>
</linearGradient>
<linearGradient id="paint1_linear_2002_306" x1="18.0788" y1="-1.9936" x2="48.8638" y2="57.4775" gradientUnits="userSpaceOnUse">
<stop stop-color="#00FFFF"/>
<stop offset="1" stop-color="#FF00FF"/>
</linearGradient>
<linearGradient id="paint2_linear_2002_306" x1="17.4719" y1="-1.67863" x2="48.2569" y2="57.7925" gradientUnits="userSpaceOnUse">
<stop stop-color="#00FFFF"/>
<stop offset="1" stop-color="#FF00FF"/>
</linearGradient>
<linearGradient id="paint3_linear_2002_306" x1="16.8793" y1="-1.37216" x2="47.6643" y2="58.099" gradientUnits="userSpaceOnUse">
<stop stop-color="#00FFFF"/>
<stop offset="1" stop-color="#FF00FF"/>
</linearGradient>
<linearGradient id="paint4_linear_2002_306" x1="16.3397" y1="-1.09406" x2="47.1248" y2="58.377" gradientUnits="userSpaceOnUse">
<stop stop-color="#00FFFF"/>
<stop offset="1" stop-color="#FF00FF"/>
</linearGradient>
<linearGradient id="paint5_linear_2002_306" x1="15.7503" y1="-0.787205" x2="46.5353" y2="58.6839" gradientUnits="userSpaceOnUse">
<stop stop-color="#00FFFF"/>
<stop offset="1" stop-color="#FF00FF"/>
</linearGradient>
<linearGradient id="paint6_linear_2002_306" x1="14.737" y1="-0.263884" x2="45.522" y2="59.2072" gradientUnits="userSpaceOnUse">
<stop stop-color="#00FFFF"/>
<stop offset="1" stop-color="#FF00FF"/>
</linearGradient>
<linearGradient id="paint7_linear_2002_306" x1="12.9333" y1="0.670217" x2="43.7183" y2="60.1414" gradientUnits="userSpaceOnUse">
<stop stop-color="#00FFFF"/>
<stop offset="1" stop-color="#FF00FF"/>
</linearGradient>
<linearGradient id="paint8_linear_2002_306" x1="10.64" y1="1.85819" x2="41.4251" y2="61.3293" gradientUnits="userSpaceOnUse">
<stop stop-color="#00FFFF"/>
<stop offset="1" stop-color="#FF00FF"/>
</linearGradient>
<linearGradient id="paint9_linear_2002_306" x1="10.5589" y1="1.89974" x2="41.3439" y2="61.3709" gradientUnits="userSpaceOnUse">
<stop stop-color="#00FFFF"/>
<stop offset="1" stop-color="#FF00FF"/>
</linearGradient>
<linearGradient id="paint10_linear_2002_306" x1="10.6322" y1="1.86197" x2="41.4172" y2="61.3331" gradientUnits="userSpaceOnUse">
<stop stop-color="#00FFFF"/>
<stop offset="1" stop-color="#FF00FF"/>
</linearGradient>
<linearGradient id="paint11_linear_2002_306" x1="10.5977" y1="1.88005" x2="41.3828" y2="61.3514" gradientUnits="userSpaceOnUse">
<stop stop-color="#00FFFF"/>
<stop offset="1" stop-color="#FF00FF"/>
</linearGradient>
<linearGradient id="paint12_linear_2002_306" x1="10.5499" y1="1.90446" x2="41.3349" y2="61.3755" gradientUnits="userSpaceOnUse">
<stop stop-color="#00FFFF"/>
<stop offset="1" stop-color="#FF00FF"/>
</linearGradient>
</defs>
</svg>
