<svg width="75" height="34" viewBox="0 0 75 34" fill="none" xmlns="http://www.w3.org/2000/svg">
<g clip-path="url(#clip0_2002_194)">
<path d="M24.4446 32.9764V30.905C24.4446 30.111 23.95 29.5932 23.102 29.5932C22.6781 29.5932 22.2188 29.7313 21.9008 30.18C21.6535 29.8003 21.3002 29.5932 20.7702 29.5932C20.4169 29.5932 20.0636 29.6967 19.781 30.0765V29.6622H19.0391V32.9764H19.781V31.1467C19.781 30.5598 20.099 30.2836 20.5936 30.2836C21.0882 30.2836 21.3355 30.5943 21.3355 31.1467V32.9764H22.0775V31.1467C22.0775 30.5598 22.4308 30.2836 22.89 30.2836C23.3847 30.2836 23.632 30.5943 23.632 31.1467V32.9764H24.4446ZM35.4323 29.6622H34.231V28.661H33.4891V29.6622H32.8178V30.3181H33.4891V31.8371C33.4891 32.5966 33.8071 33.0454 34.655 33.0454C34.973 33.0454 35.3263 32.9419 35.5736 32.8038L35.3616 32.1824C35.1496 32.3205 34.9023 32.355 34.7257 32.355C34.3724 32.355 34.231 32.1479 34.231 31.8026V30.3181H35.4323V29.6622ZM41.721 29.5932C41.2971 29.5932 41.0144 29.8003 40.8378 30.0765V29.6622H40.0958V32.9764H40.8378V31.1122C40.8378 30.5598 41.0851 30.2491 41.5444 30.2491C41.6857 30.2491 41.8624 30.2836 42.0037 30.3181L42.2157 29.6277C42.0743 29.5932 41.8623 29.5932 41.721 29.5932ZM32.2172 29.9384C31.8639 29.6967 31.3693 29.5932 30.8393 29.5932C29.9914 29.5932 29.4261 30.0074 29.4261 30.6634C29.4261 31.2157 29.8501 31.5264 30.592 31.63L30.9453 31.6645C31.334 31.7336 31.5459 31.8371 31.5459 32.0098C31.5459 32.2514 31.2633 32.424 30.7687 32.424C30.274 32.424 29.8854 32.2514 29.6381 32.0788L29.2848 32.6312C29.6734 32.9074 30.2034 33.0454 30.7333 33.0454C31.7226 33.0454 32.2879 32.5966 32.2879 31.9752C32.2879 31.3883 31.8286 31.0776 31.122 30.9741L30.7687 30.9396C30.4507 30.905 30.2034 30.836 30.2034 30.6288C30.2034 30.3872 30.4507 30.2491 30.8393 30.2491C31.2633 30.2491 31.6873 30.4217 31.8992 30.5253L32.2172 29.9384ZM51.9314 29.5932C51.5075 29.5932 51.2248 29.8003 51.0482 30.0765V29.6622H50.3063V32.9764H51.0482V31.1122C51.0482 30.5598 51.2955 30.2491 51.7548 30.2491C51.8961 30.2491 52.0728 30.2836 52.2141 30.3181L52.4261 29.6277C52.2848 29.5932 52.0728 29.5932 51.9314 29.5932ZM42.463 31.3193C42.463 32.3205 43.1696 33.0454 44.2648 33.0454C44.7594 33.0454 45.1127 32.9419 45.466 32.6657L45.1127 32.0788C44.8301 32.2859 44.5474 32.3895 44.2295 32.3895C43.6289 32.3895 43.2049 31.9752 43.2049 31.3193C43.2049 30.6979 43.6289 30.2836 44.2295 30.2491C44.5474 30.2491 44.8301 30.3527 45.1127 30.5598L45.466 29.9729C45.1127 29.6967 44.7594 29.5932 44.2648 29.5932C43.1696 29.5932 42.463 30.3181 42.463 31.3193ZM49.317 31.3193V29.6622H48.5751V30.0765C48.3278 29.7658 47.9745 29.5932 47.5152 29.5932C46.5613 29.5932 45.8193 30.3181 45.8193 31.3193C45.8193 32.3205 46.5613 33.0454 47.5152 33.0454C48.0098 33.0454 48.3631 32.8728 48.5751 32.5621V32.9764H49.317V31.3193ZM46.5966 31.3193C46.5966 30.7324 46.9852 30.2491 47.6212 30.2491C48.2218 30.2491 48.6457 30.6979 48.6457 31.3193C48.6457 31.9062 48.2218 32.3895 47.6212 32.3895C46.9852 32.355 46.5966 31.9062 46.5966 31.3193ZM37.7287 29.5932C36.7395 29.5932 36.0329 30.2836 36.0329 31.3193C36.0329 32.355 36.7395 33.0454 37.7641 33.0454C38.2587 33.0454 38.7533 32.9073 39.1419 32.5966L38.7886 32.0788C38.506 32.2859 38.1527 32.424 37.7994 32.424C37.3401 32.424 36.8808 32.2169 36.7748 31.63H39.2832V31.3538C39.3186 30.2836 38.6826 29.5932 37.7287 29.5932ZM37.7287 30.2146C38.188 30.2146 38.506 30.4908 38.5766 31.0086H36.8101C36.8808 30.5598 37.1988 30.2146 37.7287 30.2146ZM56.1357 31.3193V28.3503H55.3938V30.0765C55.1465 29.7658 54.7932 29.5932 54.3339 29.5932C53.38 29.5932 52.6381 30.3181 52.6381 31.3193C52.6381 32.3205 53.38 33.0454 54.3339 33.0454C54.8285 33.0454 55.1818 32.8728 55.3938 32.5621V32.9764H56.1357V31.3193ZM53.4153 31.3193C53.4153 30.7324 53.8039 30.2491 54.4399 30.2491C55.0405 30.2491 55.4645 30.6979 55.4645 31.3193C55.4645 31.9062 55.0405 32.3895 54.4399 32.3895C53.8039 32.355 53.4153 31.9062 53.4153 31.3193ZM28.6135 31.3193V29.6622H27.8716V30.0765C27.6243 29.7658 27.271 29.5932 26.8117 29.5932C25.8578 29.5932 25.1158 30.3181 25.1158 31.3193C25.1158 32.3205 25.8578 33.0454 26.8117 33.0454C27.3063 33.0454 27.6596 32.8728 27.8716 32.5621V32.9764H28.6135V31.3193ZM25.8578 31.3193C25.8578 30.7324 26.2464 30.2491 26.8824 30.2491C27.483 30.2491 27.9069 30.6979 27.9069 31.3193C27.9069 31.9062 27.483 32.3895 26.8824 32.3895C26.2464 32.355 25.8578 31.9062 25.8578 31.3193Z" fill="#EAEAEA"/>
<path d="M43.1017 4.49609H31.9727V24.036H43.1017V4.49609Z" fill="#FF5F00"/>
<path d="M32.679 14.2659C32.679 10.2957 34.5868 6.77441 37.5192 4.49591C35.364 2.83881 32.6436 1.83765 29.6759 1.83765C22.6452 1.83765 16.957 7.39582 16.957 14.2659C16.957 21.1359 22.6452 26.6941 29.6759 26.6941C32.6436 26.6941 35.364 25.6929 37.5192 24.0358C34.5868 21.7918 32.679 18.236 32.679 14.2659Z" fill="#EB001B"/>
<path d="M58.1169 14.2659C58.1169 21.1359 52.4287 26.6941 45.398 26.6941C42.4303 26.6941 39.7098 25.6929 37.5547 24.0358C40.5224 21.7573 42.3949 18.236 42.3949 14.2659C42.3949 10.2957 40.4871 6.77441 37.5547 4.49591C39.7098 2.83881 42.4303 1.83765 45.398 1.83765C52.4287 1.83765 58.1169 7.43034 58.1169 14.2659Z" fill="#F79E1B"/>
</g>
<defs>
<clipPath id="clip0_2002_194">
<rect width="74.7196" height="33.9769" fill="white" transform="translate(0 0.0231934)"/>
</clipPath>
</defs>
</svg>
