<svg width="42" height="32" viewBox="0 0 42 32" fill="none" xmlns="http://www.w3.org/2000/svg">
<path d="M26.3691 22.3883H15.1445V2.74121H26.3691V22.3883Z" fill="#6C6BBD"/>
<path d="M15.8557 12.5642C15.8557 8.57875 17.7716 5.02859 20.7551 2.74073C18.5733 1.06773 15.8198 0.0691681 12.8273 0.0691681C5.74278 0.0691681 0 5.66332 0 12.5642C0 19.4652 5.74278 25.0593 12.8273 25.0593C15.8198 25.0593 18.5733 24.0608 20.7551 22.3878C17.7716 20.0999 15.8557 16.5497 15.8557 12.5642Z" fill="#D32011"/>
<path d="M41.5098 12.5642C41.5098 19.4652 35.767 25.0593 28.6826 25.0593C25.69 25.0593 22.9365 24.0608 20.7539 22.3878C23.7383 20.0999 25.6542 16.5497 25.6542 12.5642C25.6542 8.57875 23.7383 5.02859 20.7539 2.74073C22.9365 1.06773 25.69 0.0691681 28.6826 0.0691681C35.767 0.0691681 41.5098 5.66332 41.5098 12.5642Z" fill="#0099DF"/>
<path d="M30.1646 27.9393C30.3138 27.9393 30.5283 27.9671 30.6923 28.0299L30.4639 28.7099C30.3073 28.6471 30.1507 28.6265 30.0006 28.6265C29.5162 28.6265 29.2739 28.9315 29.2739 29.4797V31.3401H28.5325V28.0227H29.2666V28.4255C29.4591 28.134 29.7372 27.9393 30.1646 27.9393ZM27.4257 28.6821H26.2145V30.1811C26.2145 30.514 26.3352 30.7364 26.7063 30.7364C26.8988 30.7364 27.1411 30.6736 27.3613 30.5489L27.575 31.1662C27.3401 31.3258 26.9698 31.4236 26.6493 31.4236C25.7725 31.4236 25.4666 30.9652 25.4666 30.1946V28.6821H24.775V28.0227H25.4666V27.0162H26.2145V28.0227H27.4257V28.6821ZM17.9409 29.3899C18.02 28.9109 18.3185 28.5844 18.8462 28.5844C19.3233 28.5844 19.63 28.8759 19.7083 29.3899H17.9409ZM20.4783 29.6814C20.4709 28.6471 19.8152 27.9393 18.8601 27.9393C17.8626 27.9393 17.1644 28.6471 17.1644 29.6814C17.1644 30.7356 17.8911 31.4228 18.9106 31.4228C19.4237 31.4228 19.8935 31.298 20.307 30.958L19.9432 30.4234C19.6586 30.6458 19.2948 30.7706 18.9531 30.7706C18.4759 30.7706 18.0412 30.5553 17.9343 29.9587H20.4636C20.4709 29.8681 20.4783 29.7784 20.4783 29.6814ZM23.7342 28.8696C23.5279 28.7441 23.1078 28.5844 22.6731 28.5844C22.2669 28.5844 22.0247 28.7305 22.0247 28.9736C22.0247 29.1953 22.2808 29.258 22.6013 29.2993L22.9504 29.3478C23.6918 29.4527 24.1404 29.7577 24.1404 30.3408C24.1404 30.9723 23.5703 31.4236 22.5875 31.4236C22.0312 31.4236 21.5182 31.2845 21.112 30.993L21.4611 30.4306C21.7107 30.618 22.0818 30.7777 22.5948 30.7777C23.1005 30.7777 23.3713 30.6323 23.3713 30.375C23.3713 30.1883 23.1788 30.0834 22.7726 30.0286L22.4235 29.9801C21.6609 29.8753 21.2474 29.5424 21.2474 29.0014C21.2474 28.3421 21.8036 27.9393 22.6658 27.9393C23.2073 27.9393 23.6992 28.0577 24.0548 28.2865L23.7342 28.8696ZM32.8732 28.6249C32.7207 28.6249 32.5796 28.6511 32.4483 28.7027C32.3178 28.7552 32.2044 28.8283 32.109 28.922C32.0136 29.0157 31.9385 29.1285 31.8839 29.2596C31.8293 29.3907 31.8023 29.5353 31.8023 29.6926C31.8023 29.8507 31.8293 29.9944 31.8839 30.1255C31.9385 30.2566 32.0136 30.3694 32.109 30.4631C32.2044 30.5569 32.3178 30.63 32.4483 30.6824C32.5796 30.7348 32.7207 30.7602 32.8732 30.7602C33.0258 30.7602 33.1677 30.7348 33.2982 30.6824C33.4295 30.63 33.5437 30.5569 33.6391 30.4631C33.7362 30.3694 33.8112 30.2566 33.8667 30.1255C33.9213 29.9944 33.9482 29.8507 33.9482 29.6926C33.9482 29.5353 33.9213 29.3907 33.8667 29.2596C33.8112 29.1285 33.7362 29.0157 33.6391 28.922C33.5437 28.8283 33.4295 28.7552 33.2982 28.7027C33.1677 28.6511 33.0258 28.6249 32.8732 28.6249ZM32.8732 27.9393C33.1375 27.9393 33.3822 27.9838 33.6073 28.0736C33.8324 28.1626 34.0274 28.2857 34.1913 28.4422C34.356 28.5987 34.4841 28.7838 34.5771 28.9967C34.6701 29.2104 34.7166 29.4423 34.7166 29.6926C34.7166 29.9428 34.6701 30.1748 34.5771 30.3885C34.4841 30.6014 34.356 30.7872 34.1913 30.9437C34.0274 31.1002 33.8324 31.2226 33.6073 31.3123C33.3822 31.4013 33.1375 31.4458 32.8732 31.4458C32.609 31.4458 32.3643 31.4013 32.1392 31.3123C31.9141 31.2226 31.7208 31.1002 31.5577 30.9437C31.3945 30.7872 31.2665 30.6014 31.1735 30.3885C31.0805 30.1748 31.034 29.9428 31.034 29.6926C31.034 29.4423 31.0805 29.2104 31.1735 28.9967C31.2665 28.7838 31.3945 28.5987 31.5577 28.4422C31.7208 28.2857 31.9141 28.1626 32.1392 28.0736C32.3643 27.9838 32.609 27.9393 32.8732 27.9393ZM13.6116 29.6814C13.6116 29.0984 14.0039 28.6193 14.6449 28.6193C15.2575 28.6193 15.671 29.0777 15.671 29.6814C15.671 30.2852 15.2575 30.7428 14.6449 30.7428C14.0039 30.7428 13.6116 30.2645 13.6116 29.6814ZM16.3692 29.6814V28.0227H15.6286V28.4255C15.3929 28.1268 15.0373 27.9393 14.5528 27.9393C13.5977 27.9393 12.8498 28.6678 12.8498 29.6814C12.8498 30.6943 13.5977 31.4236 14.5528 31.4236C15.0373 31.4236 15.3929 31.2361 15.6286 30.9374V31.3401H16.3692V29.6814ZM12.194 31.3401V29.258C12.194 28.474 11.681 27.9465 10.8548 27.9393C10.42 27.9322 9.97063 28.064 9.65743 28.5296C9.42253 28.1618 9.05142 27.9393 8.53106 27.9393C8.16811 27.9393 7.81168 28.0434 7.53355 28.4319V28.0227H6.79297V31.3401H7.54089V29.5011C7.54089 28.9252 7.86877 28.6193 8.37446 28.6193C8.86628 28.6193 9.11586 28.9315 9.11586 29.494V31.3401H9.86378V29.5011C9.86378 28.9252 10.2063 28.6193 10.6973 28.6193C11.2038 28.6193 11.4461 28.9315 11.4461 29.494V31.3401H12.194Z" fill="#EAEAEA"/>
</svg>
