<svg width="40" height="40" viewBox="0 0 40 40" fill="none" xmlns="http://www.w3.org/2000/svg">
<rect width="40" height="40" rx="8" fill="#202342"/>
<path d="M29.4286 11H10.5714C10.1547 11 9.75496 11.1791 9.46026 11.4979C9.16556 11.8167 9 12.2491 9 12.7V26.3C9 26.7509 9.16556 27.1833 9.46026 27.5021C9.75496 27.8209 10.1547 28 10.5714 28H29.4286C29.8453 28 30.245 27.8209 30.5397 27.5021C30.8344 27.1833 31 26.7509 31 26.3V12.7C31 12.2491 30.8344 11.8167 30.5397 11.4979C30.245 11.1791 29.8453 11 29.4286 11ZM27.7 12.7L20 18.463L12.3 12.7H27.7ZM10.5714 26.3V13.4735L19.5521 20.197C19.6837 20.2957 19.8399 20.3486 20 20.3486C20.1601 20.3486 20.3163 20.2957 20.4479 20.197L29.4286 13.4735V26.3H10.5714Z" fill="#5A63D3"/>
</svg>
