<svg width="40" height="40" viewBox="0 0 40 40" fill="none" xmlns="http://www.w3.org/2000/svg">
<rect width="40" height="40" rx="8" fill="#202342"/>
<path d="M29.4222 25.8834L29.9512 26.4154L29.4212 25.8834H29.4222ZM16.8162 23.7274L17.3442 23.1954L16.8152 23.7274H16.8162ZM12.6902 13.1354L12.1622 12.6044L12.6912 13.1364L12.6902 13.1354ZM24.6282 22.8914L25.0852 22.4384L24.0262 21.3744L23.5722 21.8274L24.6282 22.8914ZM26.6142 22.2484L28.5252 23.2874L29.2402 21.9694L27.3302 20.9314L26.6142 22.2484ZM28.8922 25.3514L27.4722 26.7644L28.5292 27.8274L29.9492 26.4154L28.8922 25.3514ZM26.6062 27.2184C25.1562 27.3544 21.4062 27.2334 17.3442 23.1954L16.2862 24.2584C20.7182 28.6654 24.9372 28.8814 26.7462 28.7124L26.6052 27.2184H26.6062ZM17.3442 23.1954C13.4732 19.3454 12.8312 16.1084 12.7512 14.7034L11.2532 14.7884C11.3532 16.5564 12.1482 20.1444 16.2862 24.2584L17.3442 23.1954ZM18.7192 17.0154L19.0062 16.7294L17.9502 15.6664L17.6632 15.9514L18.7202 17.0144L18.7192 17.0154ZM19.2342 13.0944L17.9742 11.4104L16.7732 12.3104L18.0332 13.9934L19.2342 13.0944ZM13.7332 11.0434L12.1632 12.6034L13.2212 13.6674L14.7902 12.1074L13.7332 11.0434ZM18.1912 16.4834C17.6612 15.9514 17.6612 15.9514 17.6612 15.9534H17.6592L17.6562 15.9574C17.609 16.0056 17.5664 16.0582 17.5292 16.1144C17.4752 16.1944 17.4162 16.2994 17.3662 16.4324C17.2444 16.7758 17.2141 17.1449 17.2782 17.5034C17.4122 18.3684 18.0082 19.5114 19.5342 21.0294L20.5922 19.9654C19.1632 18.5454 18.8232 17.6814 18.7602 17.2734C18.7302 17.0794 18.7612 16.9834 18.7702 16.9614C18.7752 16.9474 18.7772 16.9464 18.7702 16.9554C18.7614 16.9693 18.7513 16.9824 18.7402 16.9944L18.7302 17.0044C18.7269 17.0076 18.7236 17.0106 18.7202 17.0134L18.1902 16.4834H18.1912ZM19.5342 21.0294C21.0612 22.5474 22.2102 23.1394 23.0762 23.2714C23.5192 23.3394 23.8762 23.2854 24.1472 23.1844C24.2987 23.1284 24.4405 23.0487 24.5672 22.9484C24.5844 22.9341 24.6011 22.9191 24.6172 22.9034L24.6242 22.8974L24.6272 22.8944L24.6282 22.8924C24.6282 22.8924 24.6292 22.8914 24.1002 22.3594C23.5702 21.8274 23.5732 21.8264 23.5732 21.8264L23.5752 21.8244L23.5772 21.8224L23.5832 21.8174L23.5932 21.8074C23.6052 21.7967 23.6179 21.7866 23.6312 21.7774C23.6412 21.7704 23.6382 21.7734 23.6242 21.7794C23.5992 21.7884 23.5012 21.8194 23.3042 21.7894C22.8902 21.7254 22.0202 21.3854 20.5922 19.9654L19.5342 21.0294ZM17.9742 11.4094C16.9542 10.0494 14.9502 9.83345 13.7332 11.0434L14.7902 12.1074C15.3222 11.5784 16.2662 11.6334 16.7732 12.3104L17.9732 11.4094H17.9742ZM12.7522 14.7044C12.7322 14.3584 12.8912 13.9964 13.2212 13.6684L12.1622 12.6044C11.6252 13.1384 11.2022 13.8944 11.2532 14.7884L12.7522 14.7044ZM27.4722 26.7644C27.1982 27.0384 26.9022 27.1924 26.6072 27.2194L26.7462 28.7124C27.4812 28.6434 28.0822 28.2734 28.5302 27.8284L27.4722 26.7644ZM19.0062 16.7294C19.9912 15.7504 20.0642 14.2034 19.2352 13.0954L18.0342 13.9944C18.4372 14.5334 18.3772 15.2404 17.9492 15.6674L19.0062 16.7294ZM28.5262 23.2884C29.3432 23.7324 29.4702 24.7784 28.8932 25.3524L29.9512 26.4154C31.2912 25.0824 30.8782 22.8594 29.2412 21.9704L28.5262 23.2884ZM25.0852 22.4394C25.4692 22.0574 26.0872 21.9634 26.6152 22.2494L27.3312 20.9324C26.2472 20.3424 24.9032 20.5054 24.0272 21.3754L25.0852 22.4394Z" fill="#5A63D3"/>
</svg>
