<svg width="648" height="648" viewBox="0 0 648 648" fill="none" xmlns="http://www.w3.org/2000/svg">
<g clip-path="url(#clip0_76_34187)">
<circle cx="303.661" cy="313.445" r="176.385" stroke="url(#paint0_linear_76_34187)" stroke-opacity="0.7" stroke-width="1.02848"/>
<circle cx="303.189" cy="306.026" r="188.175" stroke="url(#paint1_linear_76_34187)" stroke-width="1.09723"/>
<circle cx="308.915" cy="309.08" r="243.043" stroke="url(#paint2_linear_76_34187)" stroke-width="1.09723"/>
<circle cx="307.502" cy="306.229" r="221.758" stroke="url(#paint3_linear_76_34187)" stroke-opacity="0.3" stroke-width="1.09723"/>
<path d="M576.451 312.5C576.451 457.176 460.063 574.451 316.5 574.451C172.937 574.451 56.5486 457.176 56.5486 312.5C56.5486 167.824 172.937 50.5486 316.5 50.5486C460.063 50.5486 576.451 167.824 576.451 312.5Z" stroke="url(#paint4_linear_76_34187)" stroke-width="1.09723"/>
<circle cx="316.488" cy="310.972" r="300.748" stroke="url(#paint5_linear_76_34187)" stroke-width="1.09723"/>
<circle cx="324" cy="324" r="323.451" stroke="url(#paint6_linear_76_34187)" stroke-width="1.09723"/>
<circle cx="314.114" cy="304.054" r="204.387" stroke="url(#paint7_linear_76_34187)" stroke-width="1.11865"/>
<mask id="path-9-inside-1_76_34187" fill="white">
<path fill-rule="evenodd" clip-rule="evenodd" d="M303 467C391.918 467 464 394.918 464 306C464 217.082 391.918 145 303 145C214.082 145 142 217.082 142 306C142 394.918 214.082 467 303 467ZM302.867 157.927C302.872 157.927 302.873 157.933 302.87 157.936C293 166.026 282.974 170.869 272.036 170.871C270.643 170.871 269.241 170.792 267.815 170.635C267.633 170.615 267.451 170.593 267.269 170.57C262.104 169.911 262.324 163.613 267.38 162.368C267.66 162.3 267.939 162.232 268.219 162.165C268.337 162.136 268.46 162.13 268.577 162.159C268.639 162.174 268.7 162.19 268.761 162.196C273.721 162.732 278.551 161.939 283.331 160.045C284.961 159.4 286.646 158.88 288.39 158.704C293.151 158.222 297.966 157.926 302.853 157.926C302.857 157.926 302.86 157.926 302.863 157.926L302.867 157.927ZM318.648 158.846C322.1 159.251 323.566 163.383 321.227 165.953C303.673 185.238 286.582 198.947 267.285 198.947C265.51 198.947 263.719 198.831 261.903 198.595C251.906 197.284 241.731 192.091 231.174 182.893C228.993 180.993 229.376 177.537 231.902 176.128C233.514 175.228 235.512 175.507 236.909 176.715C246.025 184.599 254.697 189.082 263.014 190.173C280.859 192.555 297.459 179.475 314.93 160.266C315.872 159.23 317.257 158.683 318.648 158.846ZM255.375 226.832C257.697 227.189 259.978 227.355 262.233 227.355C291.077 227.355 315.4 199.718 343.24 168.08C344.164 167.03 345.101 165.968 346.036 164.909C346.219 164.701 346.127 164.375 345.862 164.296C343.316 163.538 340.712 162.922 338.109 162.305C337.884 162.251 337.659 162.198 337.434 162.145C337.293 162.111 337.146 162.158 337.05 162.266L337.045 162.272L337.042 162.276C336.985 162.341 336.927 162.406 336.871 162.47L336.832 162.514C308.47 194.743 283.99 222.559 256.644 218.44C243.16 216.401 229.225 206.651 214.43 188.789C214.032 188.308 213.322 188.218 212.822 188.594L212.82 188.596L212.82 188.596C209.661 190.97 209.203 195.45 211.824 198.408C226.811 215.323 241.204 224.693 255.375 226.832ZM256.388 256.09C253.71 256.09 250.998 255.866 248.261 255.401C229.824 252.256 211.585 238.123 192.73 212.109C191.547 210.477 191.657 208.24 192.999 206.737C194.834 204.681 198.075 204.954 199.693 207.184C217.046 231.092 233.618 244.287 249.687 247.025C278.439 251.927 305.765 223.191 334.55 192.739C341.47 185.418 348.595 177.911 355.965 170.621C357.186 169.413 359.017 169.049 360.593 169.731C363.37 170.935 363.957 174.579 361.811 176.714C354.679 183.808 347.68 191.214 340.728 198.569C312.839 228.084 286.367 256.09 256.388 256.09ZM240.657 284.344C243.9 284.958 247.101 285.248 250.269 285.248C280.903 285.24 308.427 257.981 337.403 229.271C352.136 214.675 367.083 199.924 382.684 188.525C385.17 186.708 385.185 182.981 382.574 181.35C381.083 180.418 379.175 180.481 377.758 181.521C361.706 193.297 346.456 208.349 331.424 223.242C301.08 253.304 272.419 281.691 242.233 275.993C223.568 272.47 204.851 255.942 185.631 225.847C183.939 223.198 180.103 223.055 178.394 225.693C177.483 227.099 177.486 228.916 178.386 230.329C199.062 262.808 219.397 280.327 240.657 284.344ZM243.376 314.796C239.86 314.796 236.327 314.448 232.769 313.718C210.895 309.216 190.066 290.232 169.669 256.145C167.132 251.906 166.836 246.698 169.04 242.277C169.417 241.522 169.796 240.768 170.176 240.015C170.185 239.996 170.212 239.996 170.222 240.015C191.45 279.376 212.617 300.902 234.477 305.4C265.589 311.806 295.514 283.85 327.266 254.188L327.583 253.892C351.631 231.431 376.164 208.547 402.45 199.546C403.949 199.033 405.605 199.423 406.733 200.535C409.132 202.9 407.91 206.966 404.726 208.067C380.041 216.598 356.465 238.53 333.38 260.104C304.554 287.039 274.84 314.796 243.376 314.796ZM224.644 343.606C228.542 344.461 232.415 344.867 236.279 344.867C268.04 344.867 298.781 317.544 328.619 291.023L328.622 291.02C361.991 261.351 393.924 233.013 426.509 239.435C430.188 240.16 433.672 236.321 431.813 233.064C431.276 232.123 430.369 231.442 429.311 231.207C392.436 223.008 357.248 254.213 322.983 284.668C289.636 314.299 258.139 342.263 226.477 335.313C205.179 330.617 185.241 310.128 165.886 273.037C164.015 269.451 158.8 269.895 157.917 273.843C157.692 274.848 157.837 275.917 158.314 276.83C178.993 316.376 200.815 338.349 224.644 343.606ZM228.838 375.46C224.741 375.46 220.644 375.012 216.539 374.058C193.853 368.771 173.711 348.476 155.274 312.256C154.736 311.199 154.44 310.025 154.357 308.842C154.304 308.078 154.25 307.314 154.25 306.537C154.25 302.543 159.477 301.613 161.24 305.196C178.881 341.043 197.683 360.945 218.463 365.79C250.317 373.154 284.592 343.905 317.755 315.576C360.604 278.963 404.806 241.262 447.51 276.87C448.228 277.469 448.729 278.311 448.902 279.231C449.647 283.197 444.667 285.562 441.517 283.039C404.084 253.039 364.74 286.615 323.27 322.036C292.462 348.35 260.716 375.46 228.838 375.46ZM413.347 294.86C380.416 289.824 345.69 318.62 312.028 346.534L311.899 346.642L311.4 347.055C277.24 375.388 242.043 404.581 210.541 396.881C201.337 394.643 192.672 389.332 184.458 380.889C180.199 376.51 173.59 379.716 176.824 384.898C176.997 385.174 177.194 385.429 177.417 385.665C187.071 395.868 197.386 402.421 208.535 405.132C212.706 406.152 216.894 406.625 221.099 406.625C252.877 406.625 285.577 379.507 317.322 353.177L317.553 352.985L317.553 352.985C349.724 326.3 382.866 298.81 412.054 303.253C423.227 304.979 433.427 311.311 442.984 322.406C445.463 325.283 450.352 324.114 450.714 320.334C450.819 319.238 450.478 318.133 449.764 317.295C438.747 304.368 426.748 296.928 413.347 294.86ZM305.438 377.948C341.231 348.814 378.259 318.686 411.746 325.942C423.655 328.522 434.269 335.612 443.859 347.232C444.733 348.291 445.005 349.73 444.58 351.036C443.529 354.271 439.199 354.812 437.019 352.202C428.767 342.325 419.806 336.376 409.947 334.235C380.386 327.889 345.097 356.612 310.895 384.451L310.795 384.532C284.513 405.921 257.597 427.791 231.664 435.48C230.629 435.787 229.515 435.644 228.579 435.106C225.316 433.231 226.34 428.209 229.939 427.107C254.006 419.744 280.038 398.616 305.438 377.948ZM298.378 409.577C284.858 420.485 271.167 431.515 257.77 440.651C254.809 442.671 255.28 447.255 258.693 448.348C259.925 448.742 261.274 448.538 262.343 447.81C276.095 438.453 289.987 427.258 303.711 416.187L303.77 416.139C340.2 386.747 377.875 356.349 408.037 364.422C415.024 366.285 421.491 370.156 427.501 376.05C429.597 378.104 433.128 377.784 434.478 375.177C435.289 373.611 435.022 371.694 433.774 370.447C426.613 363.293 418.806 358.508 410.226 356.22C375.903 347.037 336.595 378.748 298.55 409.438L298.378 409.577ZM286.609 454.223C282.823 453.78 281.616 448.986 284.586 446.596C286.631 444.951 288.674 443.301 290.713 441.655C331.333 408.856 373.337 374.971 408.839 385.81C413.744 387.312 418.357 389.698 422.741 392.822C423.06 393.049 423.13 393.492 422.901 393.809L422.901 393.81L422.9 393.811C420.334 397.368 415.473 397.936 411.537 395.999C409.847 395.167 408.121 394.471 406.352 393.929C375.244 384.45 334.949 416.842 296.046 448.264C293.963 449.947 291.887 451.621 289.817 453.287C288.917 454.011 287.756 454.357 286.609 454.223ZM317.903 446.24C314.223 448.971 316.267 454.473 320.816 453.92C321.628 453.821 322.389 453.507 323.045 453.019C346.894 435.294 370.093 421.634 390.386 420.951C394.771 420.804 399.179 419.678 402.384 416.68C403.198 415.919 404.006 415.151 404.814 414.384L404.815 414.383C404.91 414.293 404.869 414.134 404.743 414.1C378.503 407.095 348.472 423.555 317.903 446.24Z"/>
</mask>
<path fill-rule="evenodd" clip-rule="evenodd" d="M303 467C391.918 467 464 394.918 464 306C464 217.082 391.918 145 303 145C214.082 145 142 217.082 142 306C142 394.918 214.082 467 303 467ZM302.867 157.927C302.872 157.927 302.873 157.933 302.87 157.936C293 166.026 282.974 170.869 272.036 170.871C270.643 170.871 269.241 170.792 267.815 170.635C267.633 170.615 267.451 170.593 267.269 170.57C262.104 169.911 262.324 163.613 267.38 162.368C267.66 162.3 267.939 162.232 268.219 162.165C268.337 162.136 268.46 162.13 268.577 162.159C268.639 162.174 268.7 162.19 268.761 162.196C273.721 162.732 278.551 161.939 283.331 160.045C284.961 159.4 286.646 158.88 288.39 158.704C293.151 158.222 297.966 157.926 302.853 157.926C302.857 157.926 302.86 157.926 302.863 157.926L302.867 157.927ZM318.648 158.846C322.1 159.251 323.566 163.383 321.227 165.953C303.673 185.238 286.582 198.947 267.285 198.947C265.51 198.947 263.719 198.831 261.903 198.595C251.906 197.284 241.731 192.091 231.174 182.893C228.993 180.993 229.376 177.537 231.902 176.128C233.514 175.228 235.512 175.507 236.909 176.715C246.025 184.599 254.697 189.082 263.014 190.173C280.859 192.555 297.459 179.475 314.93 160.266C315.872 159.23 317.257 158.683 318.648 158.846ZM255.375 226.832C257.697 227.189 259.978 227.355 262.233 227.355C291.077 227.355 315.4 199.718 343.24 168.08C344.164 167.03 345.101 165.968 346.036 164.909C346.219 164.701 346.127 164.375 345.862 164.296C343.316 163.538 340.712 162.922 338.109 162.305C337.884 162.251 337.659 162.198 337.434 162.145C337.293 162.111 337.146 162.158 337.05 162.266L337.045 162.272L337.042 162.276C336.985 162.341 336.927 162.406 336.871 162.47L336.832 162.514C308.47 194.743 283.99 222.559 256.644 218.44C243.16 216.401 229.225 206.651 214.43 188.789C214.032 188.308 213.322 188.218 212.822 188.594L212.82 188.596L212.82 188.596C209.661 190.97 209.203 195.45 211.824 198.408C226.811 215.323 241.204 224.693 255.375 226.832ZM256.388 256.09C253.71 256.09 250.998 255.866 248.261 255.401C229.824 252.256 211.585 238.123 192.73 212.109C191.547 210.477 191.657 208.24 192.999 206.737C194.834 204.681 198.075 204.954 199.693 207.184C217.046 231.092 233.618 244.287 249.687 247.025C278.439 251.927 305.765 223.191 334.55 192.739C341.47 185.418 348.595 177.911 355.965 170.621C357.186 169.413 359.017 169.049 360.593 169.731C363.37 170.935 363.957 174.579 361.811 176.714C354.679 183.808 347.68 191.214 340.728 198.569C312.839 228.084 286.367 256.09 256.388 256.09ZM240.657 284.344C243.9 284.958 247.101 285.248 250.269 285.248C280.903 285.24 308.427 257.981 337.403 229.271C352.136 214.675 367.083 199.924 382.684 188.525C385.17 186.708 385.185 182.981 382.574 181.35C381.083 180.418 379.175 180.481 377.758 181.521C361.706 193.297 346.456 208.349 331.424 223.242C301.08 253.304 272.419 281.691 242.233 275.993C223.568 272.47 204.851 255.942 185.631 225.847C183.939 223.198 180.103 223.055 178.394 225.693C177.483 227.099 177.486 228.916 178.386 230.329C199.062 262.808 219.397 280.327 240.657 284.344ZM243.376 314.796C239.86 314.796 236.327 314.448 232.769 313.718C210.895 309.216 190.066 290.232 169.669 256.145C167.132 251.906 166.836 246.698 169.04 242.277C169.417 241.522 169.796 240.768 170.176 240.015C170.185 239.996 170.212 239.996 170.222 240.015C191.45 279.376 212.617 300.902 234.477 305.4C265.589 311.806 295.514 283.85 327.266 254.188L327.583 253.892C351.631 231.431 376.164 208.547 402.45 199.546C403.949 199.033 405.605 199.423 406.733 200.535C409.132 202.9 407.91 206.966 404.726 208.067C380.041 216.598 356.465 238.53 333.38 260.104C304.554 287.039 274.84 314.796 243.376 314.796ZM224.644 343.606C228.542 344.461 232.415 344.867 236.279 344.867C268.04 344.867 298.781 317.544 328.619 291.023L328.622 291.02C361.991 261.351 393.924 233.013 426.509 239.435C430.188 240.16 433.672 236.321 431.813 233.064C431.276 232.123 430.369 231.442 429.311 231.207C392.436 223.008 357.248 254.213 322.983 284.668C289.636 314.299 258.139 342.263 226.477 335.313C205.179 330.617 185.241 310.128 165.886 273.037C164.015 269.451 158.8 269.895 157.917 273.843C157.692 274.848 157.837 275.917 158.314 276.83C178.993 316.376 200.815 338.349 224.644 343.606ZM228.838 375.46C224.741 375.46 220.644 375.012 216.539 374.058C193.853 368.771 173.711 348.476 155.274 312.256C154.736 311.199 154.44 310.025 154.357 308.842C154.304 308.078 154.25 307.314 154.25 306.537C154.25 302.543 159.477 301.613 161.24 305.196C178.881 341.043 197.683 360.945 218.463 365.79C250.317 373.154 284.592 343.905 317.755 315.576C360.604 278.963 404.806 241.262 447.51 276.87C448.228 277.469 448.729 278.311 448.902 279.231C449.647 283.197 444.667 285.562 441.517 283.039C404.084 253.039 364.74 286.615 323.27 322.036C292.462 348.35 260.716 375.46 228.838 375.46ZM413.347 294.86C380.416 289.824 345.69 318.62 312.028 346.534L311.899 346.642L311.4 347.055C277.24 375.388 242.043 404.581 210.541 396.881C201.337 394.643 192.672 389.332 184.458 380.889C180.199 376.51 173.59 379.716 176.824 384.898C176.997 385.174 177.194 385.429 177.417 385.665C187.071 395.868 197.386 402.421 208.535 405.132C212.706 406.152 216.894 406.625 221.099 406.625C252.877 406.625 285.577 379.507 317.322 353.177L317.553 352.985L317.553 352.985C349.724 326.3 382.866 298.81 412.054 303.253C423.227 304.979 433.427 311.311 442.984 322.406C445.463 325.283 450.352 324.114 450.714 320.334C450.819 319.238 450.478 318.133 449.764 317.295C438.747 304.368 426.748 296.928 413.347 294.86ZM305.438 377.948C341.231 348.814 378.259 318.686 411.746 325.942C423.655 328.522 434.269 335.612 443.859 347.232C444.733 348.291 445.005 349.73 444.58 351.036C443.529 354.271 439.199 354.812 437.019 352.202C428.767 342.325 419.806 336.376 409.947 334.235C380.386 327.889 345.097 356.612 310.895 384.451L310.795 384.532C284.513 405.921 257.597 427.791 231.664 435.48C230.629 435.787 229.515 435.644 228.579 435.106C225.316 433.231 226.34 428.209 229.939 427.107C254.006 419.744 280.038 398.616 305.438 377.948ZM298.378 409.577C284.858 420.485 271.167 431.515 257.77 440.651C254.809 442.671 255.28 447.255 258.693 448.348C259.925 448.742 261.274 448.538 262.343 447.81C276.095 438.453 289.987 427.258 303.711 416.187L303.77 416.139C340.2 386.747 377.875 356.349 408.037 364.422C415.024 366.285 421.491 370.156 427.501 376.05C429.597 378.104 433.128 377.784 434.478 375.177C435.289 373.611 435.022 371.694 433.774 370.447C426.613 363.293 418.806 358.508 410.226 356.22C375.903 347.037 336.595 378.748 298.55 409.438L298.378 409.577ZM286.609 454.223C282.823 453.78 281.616 448.986 284.586 446.596C286.631 444.951 288.674 443.301 290.713 441.655C331.333 408.856 373.337 374.971 408.839 385.81C413.744 387.312 418.357 389.698 422.741 392.822C423.06 393.049 423.13 393.492 422.901 393.809L422.901 393.81L422.9 393.811C420.334 397.368 415.473 397.936 411.537 395.999C409.847 395.167 408.121 394.471 406.352 393.929C375.244 384.45 334.949 416.842 296.046 448.264C293.963 449.947 291.887 451.621 289.817 453.287C288.917 454.011 287.756 454.357 286.609 454.223ZM317.903 446.24C314.223 448.971 316.267 454.473 320.816 453.92C321.628 453.821 322.389 453.507 323.045 453.019C346.894 435.294 370.093 421.634 390.386 420.951C394.771 420.804 399.179 419.678 402.384 416.68C403.198 415.919 404.006 415.151 404.814 414.384L404.815 414.383C404.91 414.293 404.869 414.134 404.743 414.1C378.503 407.095 348.472 423.555 317.903 446.24Z" fill="url(#paint8_linear_76_34187)" fill-opacity="0.3"/>
<path d="M272.036 170.871V171.871H272.036L272.036 170.871ZM267.815 170.635L267.705 171.629L267.706 171.629L267.815 170.635ZM268.761 162.196L268.648 163.19L268.653 163.191L268.761 162.196ZM302.863 157.926L302.973 156.932L302.967 156.932L302.863 157.926ZM261.903 198.595L261.773 199.586L261.774 199.586L261.903 198.595ZM263.014 190.173L263.146 189.182L263.144 189.182L263.014 190.173ZM255.375 226.832L255.527 225.844L255.524 225.843L255.375 226.832ZM343.24 168.08L342.489 167.419L342.489 167.419L343.24 168.08ZM338.109 162.305L337.878 163.278L338.109 162.305ZM337.045 162.272L336.297 161.609L336.295 161.611L337.045 162.272ZM337.042 162.276L337.791 162.938L337.792 162.937L337.042 162.276ZM336.871 162.47L337.621 163.131L337.623 163.129L336.871 162.47ZM336.832 162.514L336.081 161.853L336.081 161.853L336.832 162.514ZM256.644 218.44L256.494 219.428L256.495 219.428L256.644 218.44ZM212.82 188.596L212.219 187.796L212.207 187.805L212.195 187.815L212.82 188.596ZM248.261 255.401L248.093 256.387L248.094 256.387L248.261 255.401ZM249.687 247.025L249.855 246.04L249.855 246.04L249.687 247.025ZM334.55 192.739L335.277 193.426L335.277 193.426L334.55 192.739ZM340.728 198.569L340.001 197.882L340.001 197.882L340.728 198.569ZM250.269 285.248V286.248H250.269L250.269 285.248ZM240.657 284.344L240.843 283.362L240.843 283.362L240.657 284.344ZM337.403 229.271L336.7 228.56L336.7 228.56L337.403 229.271ZM331.424 223.242L332.128 223.952L331.424 223.242ZM242.233 275.993L242.047 276.976H242.047L242.233 275.993ZM232.769 313.718L232.568 314.697L232.568 314.698L232.769 313.718ZM234.477 305.4L234.679 304.42L234.679 304.42L234.477 305.4ZM327.266 254.188L326.583 253.457L327.266 254.188ZM327.583 253.892L326.901 253.161L326.9 253.161L327.583 253.892ZM333.38 260.104L334.063 260.834L334.063 260.834L333.38 260.104ZM224.644 343.606L224.429 344.583L224.43 344.583L224.644 343.606ZM328.619 291.023L327.959 290.272L327.954 290.276L328.619 291.023ZM328.622 291.02L329.282 291.772L329.286 291.768L328.622 291.02ZM322.983 284.668L323.647 285.415L323.647 285.415L322.983 284.668ZM226.477 335.313L226.261 336.29L226.262 336.29L226.477 335.313ZM216.539 374.058L216.312 375.032L216.313 375.032L216.539 374.058ZM218.463 365.79L218.236 366.764L218.238 366.765L218.463 365.79ZM317.755 315.576L318.405 316.336L318.405 316.336L317.755 315.576ZM323.27 322.036L323.92 322.797L323.92 322.797L323.27 322.036ZM312.028 346.534L312.666 347.304L312.666 347.304L312.028 346.534ZM413.347 294.86L413.5 293.872L413.498 293.871L413.347 294.86ZM311.899 346.642L311.26 345.872L311.26 345.872L311.899 346.642ZM311.4 347.055L312.039 347.825L311.4 347.055ZM210.541 396.881L210.779 395.909L210.778 395.909L210.541 396.881ZM208.535 405.132L208.772 404.161L208.771 404.161L208.535 405.132ZM317.322 353.177L317.961 353.946L317.961 353.946L317.322 353.177ZM317.553 352.985L318.192 353.755L318.198 353.75L318.204 353.744L317.553 352.985ZM317.553 352.985L316.915 352.215L316.909 352.22L316.903 352.226L317.553 352.985ZM412.054 303.253L412.206 302.264L412.204 302.264L412.054 303.253ZM411.746 325.942L411.535 326.92L411.535 326.92L411.746 325.942ZM305.438 377.948L306.069 378.723L306.069 378.723L305.438 377.948ZM409.947 334.235L410.159 333.258L410.157 333.257L409.947 334.235ZM310.895 384.451L310.263 383.676L310.263 383.676L310.895 384.451ZM310.795 384.532L311.427 385.308L311.427 385.308L310.795 384.532ZM298.378 409.577L299.006 410.356L298.378 409.577ZM303.711 416.187L304.339 416.965L304.339 416.965L303.711 416.187ZM303.77 416.139L303.142 415.361L303.142 415.361L303.77 416.139ZM408.037 364.422L407.778 365.388L407.779 365.388L408.037 364.422ZM410.226 356.22L409.968 357.186L409.969 357.187L410.226 356.22ZM298.55 409.438L297.923 408.66L297.922 408.66L298.55 409.438ZM290.713 441.655L291.342 442.433L291.342 442.433L290.713 441.655ZM408.839 385.81L409.132 384.854L409.131 384.853L408.839 385.81ZM406.352 393.929L406.644 392.972L406.643 392.972L406.352 393.929ZM296.046 448.264L296.674 449.042L296.674 449.042L296.046 448.264ZM404.814 414.384L404.129 413.656L404.125 413.659L404.814 414.384ZM390.386 420.951L390.419 421.951L390.386 420.951ZM402.384 416.68L401.701 415.95L402.384 416.68ZM323.045 453.019L322.448 452.216L323.045 453.019ZM289.817 453.287L290.444 454.066L289.817 453.287ZM422.741 392.822L422.161 393.637L422.741 392.822ZM236.909 176.715L236.255 177.471L236.909 176.715ZM262.343 447.81L262.906 448.637L262.343 447.81ZM283.331 160.045L283.7 160.975L283.331 160.045ZM288.39 158.704L288.289 157.709L288.39 158.704ZM437.019 352.202L437.786 351.561L437.019 352.202ZM177.417 385.665L178.144 384.978L177.417 385.665ZM441.517 283.039L442.143 282.258L441.517 283.039ZM447.51 276.87L448.15 276.102L447.51 276.87ZM411.537 395.999L411.095 396.896L411.537 395.999ZM161.24 305.196L162.138 304.754L161.24 305.196ZM155.274 312.256L154.383 312.71L155.274 312.256ZM337.434 162.145L337.203 163.118L337.434 162.145ZM284.586 446.596L285.213 447.376L284.586 446.596ZM433.774 370.447L434.48 369.739L433.774 370.447ZM429.311 231.207L429.094 232.183L429.311 231.207ZM257.77 440.651L257.206 439.825L257.77 440.651ZM404.726 208.067L404.4 207.122L404.726 208.067ZM443.859 347.232L443.088 347.868L443.859 347.232ZM169.669 256.145L168.811 256.659L169.669 256.145ZM442.984 322.406L443.742 321.753L442.984 322.406ZM302.87 157.936L303.504 158.709L302.87 157.936ZM382.684 188.525L383.274 189.332L382.684 188.525ZM361.811 176.714L362.516 177.423L361.811 176.714ZM355.965 170.621L356.668 171.332L355.965 170.621ZM321.227 165.953L321.966 166.627L321.227 165.953ZM229.939 427.107L230.232 428.064L229.939 427.107ZM402.45 199.546L402.126 198.6L402.45 199.546ZM404.743 414.1L404.485 415.066L404.743 414.1ZM199.693 207.184L198.884 207.772L199.693 207.184ZM214.43 188.789L215.2 188.151L214.43 188.789ZM427.501 376.05L428.202 375.336L427.501 376.05ZM426.509 239.435L426.703 238.454L426.509 239.435ZM345.862 164.296L346.147 163.337L345.862 164.296ZM314.93 160.266L314.19 159.593L314.93 160.266ZM170.222 240.015L169.341 240.489L170.222 240.015ZM317.903 446.24L317.307 445.437L317.903 446.24ZM449.764 317.295L449.003 317.944L449.764 317.295ZM178.386 230.329L177.542 230.866L178.386 230.329ZM192.73 212.109L191.92 212.696L192.73 212.109ZM268.219 162.165L268.453 163.137L268.219 162.165ZM231.664 435.48L231.948 436.439L231.664 435.48ZM231.174 182.893L230.517 183.647L231.174 182.893ZM377.758 181.521L378.349 182.327L377.758 181.521ZM463 306C463 394.366 391.366 466 303 466V468C392.47 468 465 395.47 465 306H463ZM303 146C391.366 146 463 217.634 463 306H465C465 216.53 392.47 144 303 144V146ZM143 306C143 217.634 214.634 146 303 146V144C213.53 144 141 216.53 141 306H143ZM303 466C214.634 466 143 394.366 143 306H141C141 395.47 213.53 468 303 468V466ZM272.036 171.871C283.291 171.869 293.536 166.88 303.504 158.709L302.236 157.162C292.465 165.172 282.657 169.869 272.036 169.871L272.036 171.871ZM267.706 171.629C269.167 171.79 270.605 171.871 272.036 171.871V169.871C270.681 169.871 269.316 169.794 267.925 169.641L267.706 171.629ZM267.142 171.561C267.33 171.585 267.517 171.608 267.705 171.629L267.926 169.641C267.749 169.621 267.572 169.6 267.395 169.578L267.142 171.561ZM267.986 161.192C267.704 161.26 267.423 161.328 267.141 161.397L267.619 163.339C267.897 163.271 268.175 163.204 268.453 163.137L267.986 161.192ZM268.873 161.203C268.887 161.204 268.891 161.206 268.88 161.203C268.875 161.202 268.868 161.201 268.858 161.198C268.847 161.196 268.835 161.193 268.819 161.189L268.335 163.129C268.384 163.141 268.511 163.175 268.648 163.19L268.873 161.203ZM282.963 159.116C278.313 160.957 273.646 161.718 268.868 161.202L268.653 163.191C273.796 163.746 278.789 162.92 283.7 160.975L282.963 159.116ZM302.853 156.926C297.925 156.926 293.077 157.224 288.289 157.709L288.49 159.699C293.226 159.219 298.006 158.926 302.853 158.926V156.926ZM302.967 156.932C302.951 156.93 302.908 156.926 302.853 156.926V158.926C302.806 158.926 302.769 158.922 302.76 158.921L302.967 156.932ZM302.977 156.933L302.973 156.932L302.754 158.92L302.758 158.921L302.977 156.933ZM267.285 199.947C287.059 199.947 304.415 185.909 321.966 166.627L320.487 165.28C302.931 184.568 286.105 197.947 267.285 197.947V199.947ZM261.774 199.586C263.632 199.828 265.466 199.947 267.285 199.947V197.947C265.554 197.947 263.806 197.834 262.032 197.603L261.774 199.586ZM230.517 183.647C241.167 192.926 251.519 198.241 261.773 199.586L262.033 197.603C252.293 196.326 242.295 191.256 231.831 182.139L230.517 183.647ZM263.144 189.182C255.09 188.125 246.594 183.768 237.563 175.958L236.255 177.471C245.456 185.429 254.305 190.04 262.884 191.165L263.144 189.182ZM314.19 159.593C305.475 169.176 297.03 177.168 288.581 182.469C280.144 187.762 271.767 190.332 263.146 189.182L262.882 191.164C272.106 192.395 280.952 189.617 289.644 184.163C298.324 178.717 306.914 170.565 315.669 160.939L314.19 159.593ZM262.233 226.355C260.027 226.355 257.797 226.192 255.527 225.844L255.223 227.82C257.597 228.185 259.928 228.355 262.233 228.355V226.355ZM342.489 167.419C328.554 183.256 315.568 198.007 302.476 208.81C289.389 219.609 276.319 226.355 262.233 226.355V228.355C276.991 228.355 290.504 221.282 303.749 210.353C316.99 199.428 330.086 184.542 343.991 168.741L342.489 167.419ZM345.286 164.247C344.352 165.306 343.414 166.369 342.489 167.419L343.99 168.741C344.914 167.691 345.851 166.63 346.786 165.57L345.286 164.247ZM337.878 163.278C340.486 163.896 343.062 164.506 345.577 165.254L346.147 163.337C343.569 162.571 340.938 161.947 338.339 161.332L337.878 163.278ZM337.203 163.118C337.428 163.171 337.653 163.224 337.878 163.278L338.339 161.332C338.114 161.278 337.89 161.225 337.665 161.172L337.203 163.118ZM337.793 162.936L337.799 162.93L336.302 161.603L336.297 161.609L337.793 162.936ZM337.792 162.937L337.795 162.934L336.295 161.611L336.292 161.614L337.792 162.937ZM337.623 163.129C337.677 163.067 337.733 163.004 337.791 162.938L336.293 161.613C336.236 161.678 336.177 161.744 336.119 161.811L337.623 163.129ZM337.582 163.175L337.621 163.131L336.12 161.809L336.081 161.853L337.582 163.175ZM256.495 219.428C270.576 221.55 283.813 215.424 296.982 204.888C310.148 194.354 323.42 179.268 337.582 163.175L336.081 161.853C321.882 177.989 308.733 192.925 295.732 203.327C282.734 213.726 270.058 219.449 256.793 217.451L256.495 219.428ZM213.66 189.427C228.512 207.358 242.648 217.335 256.494 219.428L256.793 217.451C243.673 215.467 229.938 205.945 215.2 188.151L213.66 189.427ZM213.42 189.395L213.423 189.393L212.222 187.794L212.219 187.796L213.42 189.395ZM213.444 189.377L213.444 189.377L212.195 187.815L212.195 187.815L213.444 189.377ZM255.524 225.843C241.685 223.755 227.488 214.579 212.572 197.745L211.075 199.071C226.134 216.067 240.723 225.632 255.226 227.821L255.524 225.843ZM248.094 256.387C250.886 256.861 253.654 257.09 256.388 257.09V255.09C253.766 255.09 251.11 254.87 248.428 254.415L248.094 256.387ZM191.92 212.696C210.828 238.783 229.268 253.176 248.093 256.387L248.429 254.416C230.38 251.337 212.341 237.462 193.539 211.522L191.92 212.696ZM249.855 246.04C234.186 243.37 217.814 230.449 200.503 206.597L198.884 207.772C216.277 231.736 233.051 245.205 249.519 248.011L249.855 246.04ZM333.823 192.052C319.414 207.296 305.45 222.021 291.511 232.336C277.571 242.652 263.833 248.422 249.855 246.04L249.519 248.011C264.294 250.53 278.594 244.383 292.701 233.944C306.81 223.503 320.901 208.635 335.277 193.426L333.823 192.052ZM355.261 169.91C347.879 177.213 340.743 184.732 333.823 192.052L335.277 193.426C342.197 186.105 349.312 178.609 356.668 171.332L355.261 169.91ZM341.455 199.256C348.408 191.899 355.397 184.505 362.516 177.423L361.105 176.005C353.961 183.112 346.951 190.529 340.001 197.882L341.455 199.256ZM256.388 257.09C271.698 257.09 286.026 249.938 299.953 239.189C313.878 228.441 327.524 213.998 341.455 199.256L340.001 197.882C326.042 212.655 312.508 226.972 298.731 237.606C284.955 248.238 271.058 255.09 256.388 255.09V257.09ZM250.269 284.248C247.162 284.248 244.024 283.964 240.843 283.362L240.471 285.327C243.776 285.952 247.039 286.248 250.269 286.248V284.248ZM336.7 228.56C322.197 242.929 308.129 256.863 293.87 267.213C279.615 277.562 265.282 284.244 250.268 284.248L250.269 286.248C265.889 286.244 280.636 279.292 295.045 268.832C309.452 258.374 323.633 244.322 338.107 229.981L336.7 228.56ZM382.094 187.717C366.421 199.168 351.421 213.975 336.7 228.56L338.107 229.981C352.85 215.375 367.744 200.679 383.274 189.332L382.094 187.717ZM332.128 223.952C347.17 209.05 362.368 194.052 378.349 182.327L377.166 180.714C361.044 192.542 345.742 207.649 330.72 222.531L332.128 223.952ZM242.047 276.976C257.523 279.897 272.513 274.056 287.336 263.851C302.156 253.648 316.974 238.965 332.128 223.952L330.72 222.531C315.53 237.58 300.845 252.122 286.202 262.204C271.562 272.283 257.128 277.787 242.418 275.011L242.047 276.976ZM184.788 226.385C204.04 256.53 222.954 273.372 242.047 276.976L242.418 275.011C224.182 271.569 205.662 255.354 186.474 225.309L184.788 226.385ZM240.843 283.362C219.999 279.423 199.862 262.202 179.229 229.792L177.542 230.866C198.262 263.414 218.794 281.231 240.471 285.327L240.843 283.362ZM232.568 314.698C236.193 315.441 239.793 315.796 243.376 315.796V313.796C239.926 313.796 236.461 313.454 232.97 312.738L232.568 314.698ZM168.811 256.659C189.248 290.812 210.269 310.109 232.568 314.697L232.971 312.738C211.521 308.324 190.884 289.651 170.527 255.632L168.811 256.659ZM169.283 239.565C168.904 240.318 168.523 241.073 168.145 241.831L169.935 242.723C170.311 241.97 170.689 241.218 171.069 240.465L169.283 239.565ZM234.679 304.42C213.293 300.021 192.315 278.873 171.102 239.54L169.341 240.489C190.585 279.878 211.94 301.784 234.276 306.379L234.679 304.42ZM326.583 253.457C310.689 268.306 295.338 282.642 280.089 292.479C264.846 302.313 249.863 307.547 234.679 304.42L234.276 306.379C250.203 309.659 265.738 304.118 281.174 294.16C296.603 284.206 312.091 269.733 327.949 254.919L326.583 253.457ZM326.9 253.161L326.583 253.457L327.949 254.919L328.266 254.623L326.9 253.161ZM402.126 198.6C375.595 207.685 350.899 230.747 326.901 253.161L328.266 254.623C352.363 232.115 376.732 209.41 402.774 200.492L402.126 198.6ZM334.063 260.834C357.198 239.213 380.611 217.459 405.053 209.012L404.4 207.122C379.471 215.737 355.732 237.846 332.697 259.373L334.063 260.834ZM243.376 315.796C259.402 315.796 274.898 308.73 289.934 298.374C304.972 288.018 319.662 274.29 334.063 260.834L332.697 259.373C318.271 272.853 303.692 286.471 288.8 296.727C273.906 306.984 258.814 313.796 243.376 313.796V315.796ZM236.279 343.867C232.485 343.867 228.684 343.468 224.858 342.63L224.43 344.583C228.399 345.453 232.344 345.867 236.279 345.867V343.867ZM327.954 290.276C313.023 303.547 297.934 316.957 282.62 327.055C267.304 337.156 251.875 343.867 236.279 343.867V345.867C252.444 345.867 268.267 338.917 283.721 328.725C299.177 318.532 314.377 305.02 329.283 291.771L327.954 290.276ZM327.962 290.269L327.959 290.272L329.279 291.775L329.282 291.772L327.962 290.269ZM426.703 238.454C410.053 235.173 393.657 240.794 377.335 250.842C361.018 260.887 344.624 275.454 327.958 290.273L329.286 291.768C345.989 276.917 362.246 262.48 378.384 252.545C394.517 242.613 410.38 237.276 426.316 240.416L426.703 238.454ZM323.647 285.415C340.797 270.172 358.088 254.826 375.682 244.301C393.266 233.78 411.011 228.163 429.094 232.183L429.528 230.23C410.736 226.052 392.449 231.938 374.655 242.584C356.869 253.225 339.434 268.709 322.318 283.921L323.647 285.415ZM226.262 336.29C242.461 339.846 258.527 334.445 274.622 324.561C290.712 314.679 306.992 300.215 323.647 285.415L322.318 283.92C305.627 298.752 289.485 313.085 273.575 322.856C257.669 332.625 242.155 337.731 226.691 334.337L226.262 336.29ZM165 273.499C184.377 310.634 204.499 331.491 226.261 336.29L226.692 334.337C205.859 329.743 186.105 309.622 166.773 272.574L165 273.499ZM224.859 342.63C201.485 337.473 179.848 315.853 159.2 276.367L157.428 277.293C178.138 316.899 200.146 339.225 224.429 344.583L224.859 342.63ZM216.313 375.032C220.494 376.004 224.667 376.46 228.838 376.46V374.46C224.815 374.46 220.794 374.02 216.765 373.084L216.313 375.032ZM154.383 312.71C172.86 349.007 193.184 369.642 216.312 375.032L216.766 373.084C194.522 367.9 174.563 347.945 156.165 311.803L154.383 312.71ZM153.25 306.537C153.25 307.355 153.306 308.153 153.36 308.912L155.355 308.772C155.301 308.002 155.25 307.273 155.25 306.537H153.25ZM218.69 364.816C198.375 360.079 179.753 340.55 162.138 304.754L160.343 305.637C178.009 341.537 196.99 361.81 218.236 366.764L218.69 364.816ZM317.106 314.816C300.507 328.995 283.715 343.328 267.107 353.209C250.492 363.094 234.24 368.411 218.688 364.816L218.238 366.765C234.539 370.533 251.352 364.909 268.129 354.928C284.913 344.942 301.84 330.487 318.405 316.336L317.106 314.816ZM448.15 276.102C437.334 267.083 426.373 262.67 415.328 261.75C404.297 260.832 393.259 263.404 382.284 268.224C360.377 277.847 338.496 296.538 317.106 314.816L318.405 316.336C339.864 298 361.507 279.535 383.089 270.056C393.859 265.325 404.557 262.86 415.162 263.743C425.755 264.625 436.334 268.853 446.869 277.638L448.15 276.102ZM323.92 322.797C344.689 305.056 364.78 287.914 384.326 278.913C394.08 274.421 403.638 271.987 413.027 272.493C422.4 272.999 431.682 276.438 440.892 283.819L442.143 282.258C432.637 274.64 422.963 271.026 413.135 270.496C403.323 269.967 393.435 272.516 383.489 277.096C363.638 286.238 343.321 303.595 322.621 321.276L323.92 322.797ZM228.838 376.46C245.055 376.46 261.155 369.567 276.993 359.458C292.835 349.347 308.528 335.943 323.92 322.797L322.621 321.276C307.204 334.443 291.62 347.75 275.917 357.773C260.211 367.797 244.499 374.46 228.838 374.46V376.46ZM312.666 347.304C329.513 333.334 346.547 319.212 363.471 309.202C380.401 299.188 397.068 293.382 413.196 295.848L413.498 293.871C396.695 291.302 379.534 297.376 362.453 307.48C345.366 317.587 328.206 331.82 311.39 345.764L312.666 347.304ZM312.537 347.411L312.666 347.304L311.39 345.764L311.26 345.872L312.537 347.411ZM312.039 347.825L312.537 347.411L311.26 345.872L310.762 346.285L312.039 347.825ZM210.304 397.852C226.433 401.795 243.393 396.266 260.476 386.345C277.569 376.418 294.975 361.977 312.039 347.825L310.762 346.285C293.664 360.466 276.392 374.788 259.471 384.615C242.54 394.449 226.151 399.667 210.779 395.909L210.304 397.852ZM183.741 381.586C192.054 390.132 200.878 395.56 210.305 397.852L210.778 395.909C201.796 393.725 193.289 388.533 185.175 380.192L183.741 381.586ZM208.771 404.161C197.854 401.506 187.7 395.078 178.144 384.978L176.691 386.352C186.442 396.658 196.917 403.336 208.298 406.104L208.771 404.161ZM221.099 405.625C216.97 405.625 212.862 405.161 208.772 404.161L208.297 406.104C212.55 407.144 216.818 407.625 221.099 407.625V405.625ZM316.684 352.407C300.799 365.582 284.741 378.898 268.693 388.927C252.64 398.959 236.712 405.625 221.099 405.625V407.625C237.264 407.625 253.576 400.732 269.753 390.623C285.936 380.51 302.1 367.101 317.961 353.946L316.684 352.407ZM316.915 352.215L316.684 352.407L317.961 353.946L318.192 353.755L316.915 352.215ZM316.903 352.226L316.903 352.226L318.204 353.744L318.204 353.744L316.903 352.226ZM412.204 302.264C397.257 299.989 381.42 305.901 365.405 315.59C349.373 325.289 332.986 338.885 316.915 352.215L318.192 353.755C334.292 340.4 350.561 326.908 366.44 317.301C382.335 307.685 397.663 302.074 411.903 304.241L412.204 302.264ZM443.742 321.753C434.077 310.534 423.678 304.036 412.206 302.264L411.901 304.241C422.776 305.921 432.777 312.089 442.227 323.058L443.742 321.753ZM413.195 295.848C426.301 297.871 438.099 305.149 449.003 317.944L450.525 316.646C439.396 303.587 427.196 295.985 413.5 293.872L413.195 295.848ZM411.958 324.965C394.852 321.258 376.952 327.121 358.96 337.431C340.958 347.746 322.687 362.619 304.807 377.172L306.069 378.723C323.982 364.143 342.121 349.385 359.954 339.166C377.795 328.943 395.153 323.37 411.535 326.92L411.958 324.965ZM444.63 346.595C434.934 334.848 424.137 327.603 411.958 324.965L411.535 326.92C423.173 329.44 433.603 336.377 443.088 347.868L444.63 346.595ZM409.735 335.212C419.323 337.294 428.102 343.089 436.251 352.843L437.786 351.561C429.432 341.561 420.29 335.458 410.159 333.258L409.735 335.212ZM311.526 385.227C328.643 371.294 345.954 357.207 362.668 347.386C379.403 337.552 395.336 332.121 409.737 335.213L410.157 333.257C394.997 330.003 378.505 335.76 361.655 345.661C344.784 355.575 327.349 369.769 310.263 383.676L311.526 385.227ZM311.427 385.308L311.526 385.227L310.263 383.676L310.164 383.757L311.427 385.308ZM231.948 436.439C245.06 432.551 258.373 425.095 271.665 415.968C284.96 406.838 298.292 395.997 311.427 385.308L310.164 383.757C297.017 394.456 283.749 405.244 270.533 414.319C257.313 423.396 244.201 430.72 231.379 434.522L231.948 436.439ZM304.807 377.172C292.101 387.511 279.273 397.935 266.62 406.695C253.961 415.458 241.535 422.514 229.647 426.151L230.232 428.064C242.41 424.338 255.034 417.148 267.758 408.339C280.487 399.527 293.375 389.053 306.069 378.723L304.807 377.172ZM258.333 441.478C271.77 432.314 285.493 421.258 299.006 410.356L297.75 408.799C284.224 419.712 270.565 430.715 257.206 439.825L258.333 441.478ZM303.083 415.409C289.353 426.485 275.493 437.653 261.781 446.984L262.906 448.637C276.697 439.253 290.621 428.031 304.339 416.965L303.083 415.409ZM303.142 415.361L303.082 415.409L304.339 416.965L304.398 416.917L303.142 415.361ZM408.295 363.456C392.812 359.312 375.549 365.07 357.753 375.365C339.93 385.676 321.34 400.678 303.142 415.361L304.398 416.917C322.629 402.208 341.092 387.314 358.755 377.096C376.444 366.863 393.1 361.459 407.778 365.388L408.295 363.456ZM428.202 375.336C422.089 369.342 415.475 365.37 408.294 363.456L407.779 365.388C414.573 367.2 420.893 370.97 426.801 376.764L428.202 375.336ZM409.969 357.187C418.349 359.421 426.008 364.102 433.067 371.154L434.48 369.739C427.218 362.484 419.262 357.594 410.484 355.254L409.969 357.187ZM299.178 410.217C318.218 394.857 337.488 379.315 356.274 368.748C375.072 358.174 393.188 352.697 409.968 357.186L410.485 355.254C392.941 350.56 374.242 356.347 355.294 367.005C336.334 377.67 316.927 393.329 297.923 408.66L299.178 410.217ZM299.006 410.356L299.178 410.217L297.922 408.66L297.75 408.799L299.006 410.356ZM290.085 440.877C288.046 442.523 286.003 444.172 283.959 445.817L285.213 447.376C287.259 445.729 289.302 444.079 291.342 442.433L290.085 440.877ZM409.131 384.853C390.981 379.312 371.295 385.239 351.206 396.496C331.102 407.761 310.377 424.492 290.085 440.877L291.342 442.433C311.669 426.019 332.256 409.407 352.184 398.24C372.128 387.065 391.195 381.468 408.547 386.766L409.131 384.853ZM423.322 392.008C418.863 388.831 414.154 386.392 409.132 384.854L408.546 386.766C413.334 388.233 417.851 390.566 422.161 393.637L423.322 392.008ZM423.693 394.42L423.694 394.419L422.109 393.2L422.108 393.2L423.693 394.42ZM423.693 394.42L423.693 394.42L422.108 393.2L422.108 393.201L423.693 394.42ZM406.059 394.885C407.773 395.41 409.449 396.086 411.095 396.896L411.978 395.102C410.245 394.249 408.469 393.531 406.644 392.972L406.059 394.885ZM296.674 449.042C316.142 433.318 335.877 417.419 354.621 406.625C373.398 395.812 390.926 390.274 406.06 394.885L406.643 392.972C390.67 388.105 372.497 394.023 353.623 404.892C334.716 415.78 314.853 431.789 295.418 447.487L296.674 449.042ZM290.444 454.066C292.515 452.4 294.591 450.725 296.674 449.042L295.418 447.487C293.335 449.169 291.26 450.842 289.19 452.507L290.444 454.066ZM390.352 419.952C380.004 420.3 368.983 423.952 357.598 429.702C346.207 435.455 334.393 443.339 322.448 452.216L323.641 453.822C335.545 444.975 347.255 437.166 358.5 431.487C369.75 425.805 380.475 422.285 390.419 421.951L390.352 419.952ZM404.125 413.659C403.317 414.427 402.511 415.192 401.701 415.95L403.067 417.41C403.884 416.646 404.695 415.876 405.502 415.109L404.125 413.659ZM404.13 413.654L404.129 413.656L405.499 415.112L405.501 415.111L404.13 413.654ZM318.499 447.043C333.761 435.717 348.834 425.988 363.33 419.96C377.826 413.932 391.656 411.642 404.485 415.066L405.001 413.134C391.59 409.554 377.285 411.991 362.562 418.113C347.841 424.234 332.614 434.078 317.307 445.437L318.499 447.043ZM390.419 421.951C394.93 421.799 399.615 420.639 403.067 417.41L401.701 415.95C398.743 418.716 394.613 419.809 390.352 419.952L390.419 421.951ZM320.936 454.913C321.929 454.792 322.853 454.408 323.641 453.822L322.448 452.216C321.925 452.606 321.326 452.851 320.695 452.927L320.936 454.913ZM289.19 452.507C288.494 453.068 287.599 453.331 286.725 453.229L286.493 455.216C287.914 455.382 289.341 454.954 290.444 454.066L289.19 452.507ZM422.161 393.637C422.022 393.538 421.999 393.351 422.09 393.224L423.712 394.394C424.261 393.634 424.098 392.561 423.322 392.008L422.161 393.637ZM232.389 177.001C233.605 176.323 235.15 176.516 236.255 177.471L237.563 175.958C235.875 174.498 233.424 174.134 231.415 175.254L232.389 177.001ZM258.388 449.3C259.918 449.79 261.586 449.535 262.906 448.637L261.781 446.984C260.961 447.541 259.932 447.694 258.998 447.395L258.388 449.3ZM283.7 160.975C285.285 160.347 286.874 159.862 288.49 159.699L288.289 157.709C286.417 157.899 284.636 158.453 282.963 159.116L283.7 160.975ZM443.629 350.727C442.861 353.089 439.549 353.671 437.786 351.561L436.251 352.843C438.85 355.953 444.196 355.453 445.531 351.345L443.629 350.727ZM175.976 385.427C176.184 385.76 176.422 386.068 176.691 386.352L178.144 384.978C177.966 384.789 177.809 384.587 177.673 384.368L175.976 385.427ZM185.175 380.192C182.779 377.728 179.597 377.293 177.379 378.416C176.264 378.981 175.391 379.952 175.082 381.236C174.773 382.518 175.062 383.963 175.976 385.427L177.673 384.368C176.969 383.241 176.872 382.343 177.026 381.704C177.18 381.065 177.618 380.537 178.283 380.2C179.626 379.52 181.878 379.671 183.741 381.586L185.175 380.192ZM447.919 279.415C448.195 280.886 447.44 282.066 446.223 282.674C444.987 283.291 443.38 283.25 442.143 282.258L440.892 283.819C442.804 285.351 445.261 285.389 447.117 284.463C448.991 283.527 450.353 281.542 449.884 279.046L447.919 279.415ZM446.869 277.638C447.413 278.091 447.79 278.728 447.919 279.415L449.884 279.046C449.668 277.894 449.044 276.847 448.15 276.102L446.869 277.638ZM422.089 393.226C419.882 396.285 415.601 396.885 411.978 395.102L411.095 396.896C415.345 398.988 420.785 398.452 423.711 394.396L422.089 393.226ZM155.25 306.537C155.25 305.063 156.171 304.212 157.267 304.008C158.382 303.801 159.672 304.274 160.343 305.637L162.138 304.754C161.045 302.535 158.84 301.681 156.901 302.042C154.942 302.406 153.25 304.017 153.25 306.537H155.25ZM156.165 311.803C155.695 310.879 155.43 309.838 155.355 308.772L153.36 308.912C153.451 310.212 153.776 311.519 154.383 312.71L156.165 311.803ZM337.665 161.172C337.164 161.053 336.641 161.22 336.301 161.604L337.799 162.929C337.651 163.096 337.423 163.17 337.203 163.118L337.665 161.172ZM283.959 445.817C280.369 448.706 281.737 454.66 286.493 455.216L286.725 453.229C283.909 452.9 282.863 449.266 285.213 447.376L283.959 445.817ZM156.941 273.624C156.664 274.863 156.842 276.174 157.428 277.293L159.2 276.367C158.831 275.661 158.72 274.833 158.893 274.061L156.941 273.624ZM166.773 272.574C165.638 270.399 163.465 269.427 161.437 269.619C159.396 269.813 157.485 271.192 156.941 273.624L158.893 274.061C159.232 272.546 160.37 271.729 161.626 271.61C162.894 271.49 164.264 272.089 165 273.499L166.773 272.574ZM435.366 375.637C436.37 373.697 436.047 371.305 434.48 369.739L433.067 371.154C433.996 372.083 434.207 373.525 433.59 374.718L435.366 375.637ZM432.682 232.569C432.009 231.389 430.868 230.528 429.528 230.23L429.094 232.183C429.87 232.355 430.544 232.858 430.945 233.56L432.682 232.569ZM257.206 439.825C253.637 442.26 254.092 447.924 258.388 449.3L258.998 447.395C256.468 446.585 255.981 443.081 258.333 441.478L257.206 439.825ZM406.031 201.247C407.815 203.006 407.001 206.223 404.4 207.122L405.053 209.012C408.819 207.71 410.449 202.794 407.435 199.823L406.031 201.247ZM443.088 347.868C443.743 348.663 443.948 349.745 443.629 350.727L445.531 351.345C446.061 349.715 445.723 347.919 444.63 346.595L443.088 347.868ZM170.527 255.632C168.158 251.672 167.89 246.825 169.935 242.723L168.145 241.831C165.782 246.571 166.107 252.14 168.811 256.659L170.527 255.632ZM442.227 323.058C443.736 324.81 445.979 325.326 447.892 324.835C449.819 324.34 451.483 322.795 451.71 320.429L449.719 320.238C449.583 321.653 448.621 322.582 447.394 322.898C446.152 323.217 444.711 322.878 443.742 321.753L442.227 323.058ZM186.474 225.309C184.422 222.096 179.691 221.852 177.555 225.149L179.233 226.237C180.515 224.258 183.456 224.3 184.788 226.385L186.474 225.309ZM303.504 158.709C303.888 158.394 303.919 157.933 303.827 157.634C303.735 157.337 303.457 156.987 302.979 156.933L302.755 158.92C302.282 158.867 302.007 158.52 301.916 158.226C301.825 157.931 301.855 157.475 302.236 157.162L303.504 158.709ZM383.274 189.332C386.278 187.137 386.371 182.543 383.104 180.502L382.044 182.198C384 183.42 384.062 186.279 382.094 187.717L383.274 189.332ZM360.195 170.649C362.284 171.554 362.782 174.337 361.105 176.005L362.516 177.423C365.131 174.821 364.457 170.316 360.99 168.814L360.195 170.649ZM356.668 171.332C357.606 170.404 359.003 170.133 360.195 170.649L360.99 168.814C359.03 167.965 356.766 168.422 355.261 169.91L356.668 171.332ZM321.966 166.627C324.829 163.481 323.06 158.357 318.765 157.853L318.532 159.839C321.139 160.145 322.303 163.286 320.487 165.28L321.966 166.627ZM229.078 434.239C227.877 433.549 227.433 432.285 227.669 430.997C227.908 429.693 228.83 428.493 230.232 428.064L229.647 426.151C227.449 426.824 226.059 428.685 225.702 430.637C225.342 432.603 226.018 434.788 228.081 435.973L229.078 434.239ZM402.774 200.492C403.909 200.104 405.168 200.397 406.031 201.247L407.435 199.823C406.042 198.449 403.99 197.962 402.126 198.6L402.774 200.492ZM405.504 415.108C406.167 414.478 405.881 413.369 405.001 413.134L404.485 415.066C403.858 414.899 403.653 414.107 404.127 413.658L405.504 415.108ZM193.745 207.403C195.125 205.857 197.612 206.02 198.884 207.772L200.503 206.597C198.537 203.889 194.544 203.505 192.253 206.071L193.745 207.403ZM215.2 188.151C214.467 187.266 213.155 187.093 212.222 187.794L213.423 189.393C213.489 189.344 213.596 189.35 213.66 189.427L215.2 188.151ZM426.801 376.764C429.303 379.216 433.661 378.93 435.366 375.637L433.59 374.718C432.596 376.637 429.891 376.992 428.202 375.336L426.801 376.764ZM426.316 240.416C428.552 240.857 430.693 239.909 431.996 238.395C433.309 236.869 433.863 234.639 432.682 232.569L430.945 233.56C431.622 234.746 431.363 236.064 430.48 237.091C429.586 238.129 428.145 238.738 426.703 238.454L426.316 240.416ZM346.786 165.57C347.447 164.821 347.119 163.626 346.147 163.337L345.577 165.254C345.135 165.123 344.991 164.582 345.286 164.247L346.786 165.57ZM315.669 160.939C316.405 160.13 317.476 159.715 318.532 159.839L318.765 157.853C317.039 157.65 315.339 158.33 314.19 159.593L315.669 160.939ZM171.069 240.465C170.698 241.202 169.697 241.149 169.341 240.489L171.102 239.54C170.726 238.844 169.673 238.79 169.283 239.565L171.069 240.465ZM320.695 452.927C318.896 453.146 317.673 452.193 317.21 450.96C316.742 449.717 317.028 448.135 318.499 447.043L317.307 445.437C315.098 447.076 314.565 449.61 315.337 451.663C316.113 453.726 318.186 455.247 320.936 454.913L320.695 452.927ZM212.219 187.796C208.594 190.521 208.066 195.675 211.075 199.071L212.572 197.745C210.34 195.225 210.727 191.42 213.42 189.395L212.219 187.796ZM267.395 169.578C266.309 169.439 265.587 169.018 265.142 168.52C264.695 168.018 264.476 167.381 264.491 166.712C264.522 165.387 265.494 163.863 267.619 163.339L267.141 161.397C264.211 162.119 262.545 164.365 262.492 166.666C262.466 167.809 262.844 168.947 263.65 169.851C264.459 170.758 265.646 171.371 267.142 171.561L267.395 169.578ZM451.71 320.429C451.84 319.068 451.418 317.694 450.525 316.646L449.003 317.944C449.539 318.572 449.799 319.407 449.719 320.238L451.71 320.429ZM177.555 225.149C176.428 226.888 176.435 229.127 177.542 230.866L179.229 229.792C178.537 228.705 178.538 227.31 179.233 226.237L177.555 225.149ZM193.539 211.522C192.632 210.27 192.717 208.554 193.745 207.403L192.253 206.071C190.597 207.926 190.462 210.685 191.92 212.696L193.539 211.522ZM268.453 163.137C268.457 163.136 268.411 163.148 268.335 163.129L268.819 161.189C268.508 161.111 268.218 161.137 267.986 161.192L268.453 163.137ZM231.379 434.522C230.615 434.748 229.784 434.645 229.078 434.239L228.081 435.973C229.247 436.643 230.642 436.826 231.948 436.439L231.379 434.522ZM231.831 182.139C230.18 180.7 230.459 178.078 232.389 177.001L231.415 175.254C228.293 176.996 227.807 181.285 230.517 183.647L231.831 182.139ZM383.104 180.502C381.27 179.355 378.916 179.43 377.166 180.714L378.349 182.327C379.433 181.532 380.897 181.481 382.044 182.198L383.104 180.502Z" fill="url(#paint9_linear_76_34187)" mask="url(#path-9-inside-1_76_34187)"/>
</g>
<defs>
<linearGradient id="paint0_linear_76_34187" x1="291" y1="198.5" x2="369.5" y2="471" gradientUnits="userSpaceOnUse">
<stop offset="0.361548" stop-opacity="0"/>
<stop offset="0.704614" stop-color="#5A63D3"/>
</linearGradient>
<linearGradient id="paint1_linear_76_34187" x1="357.733" y1="117.302" x2="308.643" y2="395.479" gradientUnits="userSpaceOnUse">
<stop stop-color="#5A63D3"/>
<stop offset="1" stop-opacity="0"/>
</linearGradient>
<linearGradient id="paint2_linear_76_34187" x1="379.318" y1="65.489" x2="315.956" y2="424.54" gradientUnits="userSpaceOnUse">
<stop stop-color="#5A63D3"/>
<stop offset="1" stop-opacity="0"/>
</linearGradient>
<linearGradient id="paint3_linear_76_34187" x1="165.5" y1="421.5" x2="313.927" y2="411.6" gradientUnits="userSpaceOnUse">
<stop stop-color="#5A63D3"/>
<stop offset="1" stop-opacity="0"/>
</linearGradient>
<linearGradient id="paint4_linear_76_34187" x1="508.5" y1="525" x2="245.997" y2="335.313" gradientUnits="userSpaceOnUse">
<stop stop-color="#5A63D3"/>
<stop offset="1" stop-opacity="0"/>
</linearGradient>
<linearGradient id="paint5_linear_76_34187" x1="722.5" y1="183.5" x2="325.196" y2="453.783" gradientUnits="userSpaceOnUse">
<stop stop-color="#5A63D3"/>
<stop offset="1" stop-opacity="0"/>
</linearGradient>
<linearGradient id="paint6_linear_76_34187" x1="612" y1="572.5" x2="333.364" y2="477.572" gradientUnits="userSpaceOnUse">
<stop stop-color="#5A63D3"/>
<stop offset="1" stop-opacity="0"/>
</linearGradient>
<linearGradient id="paint7_linear_76_34187" x1="536.5" y1="331" x2="320.037" y2="401.196" gradientUnits="userSpaceOnUse">
<stop stop-color="#5A63D3"/>
<stop offset="1" stop-opacity="0"/>
</linearGradient>
<linearGradient id="paint8_linear_76_34187" x1="371" y1="198.5" x2="225" y2="467" gradientUnits="userSpaceOnUse">
<stop stop-color="#5C64AC"/>
<stop offset="1" stop-color="#141626"/>
</linearGradient>
<linearGradient id="paint9_linear_76_34187" x1="377" y1="145" x2="206" y2="556" gradientUnits="userSpaceOnUse">
<stop stop-color="#5A63D3"/>
<stop offset="1" stop-color="#32374F" stop-opacity="0"/>
</linearGradient>
<clipPath id="clip0_76_34187">
<rect width="648" height="648" fill="white"/>
</clipPath>
</defs>
</svg>
