<svg width="222" height="235" viewBox="0 0 222 235" fill="none" xmlns="http://www.w3.org/2000/svg">
<path fill-rule="evenodd" clip-rule="evenodd" d="M22.2036 65.661C22.7065 65.7371 23.2125 65.7747 23.7173 65.7747C26.9197 65.7747 30.0703 64.2587 32.0355 61.4303C49.9628 35.6369 79.3912 20.2383 110.756 20.2383C142.121 20.2383 171.549 35.6372 189.476 61.4298C191.755 64.7073 195.624 66.2231 199.321 65.6586C201.652 69.7472 203.696 73.9919 205.435 78.3575C203.451 78.9585 201.676 80.0418 200.248 81.4715C197.994 83.7254 196.601 86.8378 196.601 90.2745V148.373C196.601 155.249 202.175 160.823 209.051 160.823C215.927 160.823 221.501 155.249 221.501 148.373V90.2745C221.501 85.2169 218.485 80.8638 214.154 78.9151C214.123 78.5629 214.045 78.2089 213.916 77.8613C211.801 72.1489 209.207 66.6154 206.169 61.3266C208.443 57.9635 208.551 53.412 206.095 49.8783C184.386 18.646 148.746 0 110.756 0C72.7669 0 37.1264 18.6468 15.417 49.8791C12.9589 53.4164 13.0694 57.9735 15.3503 61.3376C12.3145 66.623 9.72285 72.1529 7.60929 77.8613C7.48203 78.2051 7.40443 78.5551 7.37288 78.9035C3.02769 80.8464 0 85.2068 0 90.2745V148.373C0 154.486 4.40589 159.57 10.2155 160.623C24.6967 193.179 54.7968 217.2 89.7284 223.984C90.3562 229.838 95.3122 234.397 101.333 234.397C107.779 234.397 113.005 229.172 113.005 222.726C113.005 216.28 107.779 211.054 101.333 211.054C97.3381 211.054 93.812 213.061 91.708 216.122C59.8571 210.086 32.2862 188.578 18.4938 159.26C22.3145 157.134 24.8994 153.055 24.8994 148.373V90.2745C24.8994 86.8378 23.5065 83.7254 21.2526 81.4715C19.8299 80.0472 18.0633 78.9667 16.0877 78.3643C17.8275 73.9971 19.8722 69.7509 22.2036 65.661ZM37.3604 110.764C37.3604 74.0378 70.2224 44.2623 110.762 44.2623C151.301 44.2623 184.163 74.0378 184.163 110.764C184.163 128.64 176.374 144.863 163.709 156.813C160.864 159.497 158.392 162.55 156.426 165.929C144.254 186.871 143.107 195.251 143.107 195.251C143.33 184.44 139.601 177.536 135.76 173.306C127.958 175.866 119.541 177.266 110.762 177.266C70.2224 177.266 37.3604 147.493 37.3604 110.764Z" fill="url(#paint0_linear_7_6)" fill-opacity="0.8"/>
<path fill-rule="evenodd" clip-rule="evenodd" d="M104.842 83.8848C107.111 83.8844 109.191 82.8794 111.239 81.2006L111.236 81.2004L111.233 81.2002C110.033 81.2002 108.853 81.2864 107.688 81.4208C106.532 81.9688 105.366 82.2158 104.163 82.0859C104.15 82.0845 104.138 82.0813 104.125 82.0781C104.113 82.075 104.1 82.0719 104.088 82.0705C103.064 82.3146 102.062 82.61 101.081 82.954C102.058 83.4276 103.019 83.7305 103.967 83.8359C104.263 83.8685 104.553 83.8848 104.842 83.8848ZM103.86 89.7074C108.263 89.7074 112.112 86.266 116.145 81.6293C115.451 81.5175 114.758 81.4072 114.05 81.3427C110.313 85.5123 106.78 88.3958 102.974 87.8878C101.105 87.6427 99.1498 86.5713 97.0844 84.6717C96.5418 84.9537 96.0168 85.2603 95.4936 85.5729C97.9989 87.985 100.395 89.3263 102.744 89.6343C103.121 89.6833 103.492 89.7074 103.86 89.7074ZM102.812 95.5987C102.344 95.5987 101.871 95.5643 101.389 95.4904C98.1499 95.0015 94.8544 92.6904 91.3999 88.4704C91.7762 88.1528 92.1698 87.857 92.5638 87.5608L92.7498 87.4209C95.8732 91.2398 98.8111 93.3204 101.652 93.7499C107.324 94.6043 112.4 88.8355 118.282 82.1518L118.29 82.1427L118.326 82.1023L118.36 82.064L118.547 82.1084L118.547 82.1084C119.127 82.2458 119.707 82.3832 120.272 82.5567L120.19 82.6496C119.996 82.8689 119.802 83.0887 119.611 83.3061C113.837 89.8673 108.793 95.5987 102.812 95.5987ZM99.9128 101.415C100.48 101.512 101.043 101.558 101.598 101.558C107.815 101.558 113.305 95.75 119.089 89.6291C120.83 87.7865 122.586 85.9289 124.387 84.188C123.821 83.9188 123.252 83.657 122.667 83.4222C120.989 85.0617 119.373 86.7639 117.808 88.4201C111.838 94.7354 106.171 100.695 100.209 99.6782C96.6797 99.0769 93.0336 96.0438 89.2024 90.5157C88.7802 90.9483 88.3791 91.4008 87.9826 91.8576C92.0402 97.6225 95.9546 100.74 99.9128 101.415ZM100.328 107.605C99.6707 107.605 99.0069 107.545 98.3344 107.418C93.8213 106.565 89.5094 102.778 85.1167 95.7338C85.4611 95.1834 85.8177 94.6438 86.1952 94.1175C90.4372 101.101 94.5552 104.911 98.6611 105.686C104.921 106.867 110.865 100.98 117.158 94.7457C120.427 91.507 123.746 88.2318 127.254 85.7419C127.802 86.0777 128.347 86.4165 128.872 86.7848C125.242 89.2297 121.793 92.6329 118.398 95.996C112.389 101.95 106.681 107.603 100.328 107.605ZM96.7001 113.509C97.4379 113.661 98.1706 113.733 98.8998 113.733C105.425 113.733 111.587 107.976 117.565 102.39C122.819 97.4804 128.196 92.481 133.864 91.1634C133.39 90.6489 132.903 90.1483 132.395 89.6671C126.752 91.4054 121.504 96.3004 116.363 101.102L116.297 101.164C109.712 107.315 103.506 113.113 97.0544 111.784C92.5191 110.851 88.1279 106.384 83.7238 98.2152L83.7193 98.2243C83.3975 98.863 83.0756 99.5017 82.7981 100.165C87.2887 108.119 91.8716 112.516 96.7001 113.509ZM97.4312 119.969C96.6298 119.969 95.8266 119.885 95.0183 119.708C90.0176 118.604 85.443 113.951 81.109 105.564C81.2974 104.685 81.5166 103.817 81.7785 102.967C86.123 111.993 90.5937 116.928 95.3984 117.988C101.965 119.429 108.497 113.63 115.412 107.485C122.625 101.074 130.034 94.5038 137.806 96.4793C138.244 97.2244 138.646 97.9893 139.021 98.7723C131.515 95.5381 124.23 102.001 116.582 108.802L116.581 108.803C110.393 114.302 104.018 119.969 97.4312 119.969ZM93.3348 126.023C94.1861 126.221 95.0357 126.313 95.8853 126.313C102.496 126.313 109.08 120.691 115.469 115.234C124.777 107.284 133.569 99.7814 141.901 108.958C141.804 107.979 141.654 107.015 141.467 106.065C132.539 98.346 123.289 106.235 114.326 113.894C107.448 119.769 100.34 125.835 93.7338 124.308C88.9122 123.184 84.6042 118.151 80.5724 108.951C80.472 109.961 80.417 110.984 80.417 112.02C80.417 112.181 80.4281 112.339 80.4392 112.498C80.4479 112.622 80.4566 112.746 80.46 112.871C84.3296 120.592 88.5605 124.91 93.3348 126.023ZM113.141 120.315C120.122 114.526 127.324 108.554 134.153 109.598C137.025 110.042 139.587 111.675 141.934 114.524C141.866 115.366 141.753 116.194 141.618 117.015C139.259 113.65 136.723 111.777 133.885 111.339C127.832 110.417 120.958 116.118 114.287 121.653L114.239 121.692C107.655 127.153 100.874 132.777 94.2835 132.777C93.4115 132.777 92.543 132.679 91.6779 132.467C89.3389 131.898 87.177 130.514 85.155 128.356C83.3706 125.517 82.0378 122.376 81.2537 119.018C84.4769 125.896 88.0325 129.768 92.0941 130.756C98.627 132.353 105.926 126.299 113.011 120.423L113.114 120.337L113.141 120.315ZM133.815 116.044C126.87 114.539 119.191 120.788 111.768 126.829C105.723 131.748 99.5058 136.792 93.9296 137.504C94.6408 137.989 95.3809 138.432 96.1329 138.856C101.614 137.355 107.315 132.723 112.879 128.195L112.9 128.178L112.9 128.178C119.993 122.405 127.311 116.448 133.442 117.764C135.895 118.297 138.08 119.967 140.065 122.816C140.313 122.156 140.557 121.494 140.76 120.813C138.697 118.193 136.403 116.605 133.815 116.044ZM100.377 140.826C103.631 138.771 106.994 136.062 110.308 133.389L110.344 133.36C118.233 126.995 126.385 120.419 133.503 122.323C135.452 122.843 137.209 123.984 138.808 125.712C138.531 126.268 138.245 126.815 137.936 127.351C136.454 125.607 134.833 124.5 133.049 124.024C126.794 122.35 118.981 128.654 111.426 134.75L111.426 134.75L111.414 134.76C108.451 137.15 105.45 139.568 102.484 141.555C101.768 141.342 101.071 141.088 100.377 140.826ZM108.716 140.041C107.765 140.809 106.81 141.58 105.855 142.338C106.642 142.478 107.432 142.609 108.239 142.688C108.765 142.265 109.292 141.84 109.822 141.412C117.889 134.896 126.246 128.178 132.697 130.144C133.561 130.408 134.375 130.85 135.156 131.416C135.496 130.996 135.813 130.558 136.129 130.119L136.13 130.119L136.215 130C135.271 129.31 134.275 128.785 133.213 128.46C125.851 126.212 117.14 133.239 108.716 140.041ZM115.215 142.553C114.153 142.691 113.077 142.775 111.986 142.802C119.157 137.194 126.292 132.664 132.425 134.343L132.38 134.386C131.868 134.872 131.356 135.358 130.81 135.808C126.223 135.244 120.801 138.378 115.215 142.553Z" fill="#CFD9FD" fill-opacity="0.4"/>
<defs>
<linearGradient id="paint0_linear_7_6" x1="169.808" y1="29.5829" x2="0.248152" y2="56.9143" gradientUnits="userSpaceOnUse">
<stop stop-color="#5A63D3"/>
<stop offset="1" stop-color="#9599D3"/>
</linearGradient>
</defs>
</svg>
