<svg width="51" height="29" viewBox="0 0 51 29" fill="none" xmlns="http://www.w3.org/2000/svg">
<path d="M30.1442 10.7094L29.9219 12.1139H32.3166L32.0239 13.9618H29.63L29.1077 17.2583H26.9248L28.2558 8.86108H33.0778L32.7833 10.7094H30.1442Z" fill="#0267BB"/>
<path d="M35.1906 17.2583H33.008L34.3379 8.86108H36.5208L35.1906 17.2583Z" fill="#0267BB"/>
<path d="M40.0368 10.7094L39.8142 12.1139H42.2757L41.9838 13.9618H39.522L39.2919 15.4089H41.8874L41.595 17.2583H36.8161L38.1471 8.86108H42.9239L42.6318 10.7094H40.0368Z" fill="#0267BB"/>
<path d="M46.0694 10.7094H46.5818C47.9844 10.7094 48.842 11.5563 48.6028 13.0598C48.3454 14.6955 47.1181 15.4089 45.8154 15.4089H45.3256L46.0694 10.7094ZM42.8498 17.2583H45.9463C48.2725 17.2583 50.5008 15.4213 50.8758 13.0598C51.25 10.6993 49.6136 8.86108 47.2747 8.86108H44.1795L42.8498 17.2583Z" fill="#0267BB"/>
<path d="M18.0713 23.3017C18.6637 23.3017 18.9403 23.7728 18.8598 24.3312C18.7785 24.9077 18.3705 25.3518 17.781 25.3518C17.1878 25.3518 16.9079 24.9077 16.9902 24.3312C17.0696 23.7728 17.4808 23.3017 18.0713 23.3017ZM15.2592 26.6047H16.7138L16.786 26.0987H16.8016C17.0011 26.5517 17.4686 26.7558 17.9472 26.7558C19.1702 26.7558 20.1771 25.6372 20.3651 24.3221C20.5505 23.0163 19.8709 21.8982 18.6557 21.8982C18.1843 21.8982 17.668 22.093 17.3003 22.494L17.7657 19.2344H16.3103L15.2592 26.6047Z" fill="#0267BB"/>
<path d="M20.4849 22.0535H22.1624L22.9244 24.3883L24.3286 22.0535H25.9824L21.7258 28.8807H20.0938L21.906 25.987L20.4849 22.0535Z" fill="#0267BB"/>
<path d="M33.6509 26.6052L35.8932 19.2097H37.8937L35.6524 26.6052H33.6509Z" fill="#0267BB"/>
<path d="M32.757 19.2097L30.9564 22.3467C30.4991 23.1692 30.2303 23.5822 30.1028 24.1021H30.0745C30.1059 23.4432 30.0163 22.6353 30.0062 22.1787L29.8093 19.2097H26.4393L26.4055 19.4092C27.2709 19.4092 27.7823 19.8455 27.9228 20.735L28.5791 26.6052H30.6541L34.8474 19.2097H32.757Z" fill="#0267BB"/>
<path d="M48.3174 26.6018L48.2611 25.5019L45.763 25.4991L45.2511 26.6018H43.0786L47.0176 19.2222H49.6853L50.3504 26.6018H48.3174ZM48.0876 22.2382C48.0637 21.6933 48.0471 20.9516 48.0829 20.5033H48.0551C47.9326 20.8711 47.4095 21.9722 47.1765 22.5142L46.4346 24.1353H48.1889L48.0876 22.2382Z" fill="#0267BB"/>
<path d="M39.997 26.8188C38.5834 26.8188 37.6464 26.3695 36.9768 25.9693L37.9287 24.5121C38.5302 24.8476 39.0039 25.2374 40.0889 25.2374C40.4393 25.2374 40.7754 25.1452 40.9655 24.8157C41.246 24.3339 40.9018 24.0752 40.1201 23.634L39.7331 23.381C38.5735 22.5892 38.0728 21.8391 38.62 20.5263C38.9683 19.6843 39.8887 19.0491 41.4083 19.0491C42.4552 19.0491 43.4376 19.5015 44.01 19.9451L42.9125 21.2299C42.3549 20.7769 41.8929 20.5492 41.3623 20.5492C40.94 20.5492 40.6185 20.7123 40.5092 20.9327C40.3016 21.3457 40.5762 21.6275 41.1854 22.004L41.6446 22.297C43.0507 23.1839 43.3852 24.1139 43.0325 24.9858C42.4279 26.4835 41.2384 26.8188 39.997 26.8188Z" fill="#0267BB"/>
<path d="M12.8102 10.7094L12.5884 12.1139H15.0492L14.7575 13.9618H12.296L12.0662 15.4089H14.6625L14.3685 17.2583H9.59036L10.9209 8.86108H15.6987L15.4063 10.7094H12.8102Z" fill="#0267BB"/>
<path d="M18.8786 10.5318H19.0905C19.8034 10.5318 20.5846 10.6653 20.4397 11.5784C20.2959 12.4921 19.4721 12.6253 18.7597 12.6253H18.5475L18.8786 10.5318ZM20.5192 13.8171C21.745 13.6055 22.5499 12.603 22.7324 11.4455C23.0163 9.65242 21.8829 8.86108 20.2239 8.86108H16.9599L15.631 17.2585H17.8151L18.3252 14.029H18.3475L19.8962 17.2585H22.614L20.5192 13.8171Z" fill="#0267BB"/>
<path d="M25.3071 17.2583H23.123L24.4537 8.86108H26.6366L25.3071 17.2583Z" fill="#0267BB"/>
<path d="M13.3819 0.490479L9.94597 5.95971L5.27458 13.8702L5.00137 10.9215L4.78711 7.71586H0.49645L0.453339 7.96882C1.55477 7.96882 2.20638 8.52304 2.38765 9.65771L3.22132 17.1322L3.22651 17.1155L3.23768 17.2251H6.18772L11.4598 6.56119L14.6566 0.490479H13.3819Z" fill="#0267BB"/>
<path d="M6.01449 9.49354H6.26329L9.36682 4.23623L9.36811 3.9895H2.30792V4.24064L5.71037 5.68879L6.01449 9.49354Z" fill="#F9B10B"/>
</svg>
