<svg width="46" height="15" viewBox="0 0 46 15" fill="none" xmlns="http://www.w3.org/2000/svg">
<path d="M19.5268 14.6916H15.8765L18.1597 0.354492H21.8098L19.5268 14.6916Z" fill="#0267BB"/>
<path d="M32.7597 0.705115C32.0396 0.415024 30.8977 0.0947266 29.4856 0.0947266C25.8807 0.0947266 23.3422 2.04691 23.3266 4.83796C23.2967 6.89718 25.1441 8.04092 26.5259 8.72753C27.9382 9.42914 28.4182 9.88709 28.4182 10.5125C28.4039 11.473 27.277 11.9157 26.2261 11.9157C24.7687 11.9157 23.9878 11.6874 22.8011 11.1531L22.3204 10.924L21.8096 14.1424C22.6657 14.5385 24.2431 14.89 25.8807 14.9054C29.7109 14.9054 32.2045 12.9834 32.2341 10.0091C32.2486 8.37703 31.2731 7.12646 29.17 6.10455C27.8932 5.44855 27.1114 5.00621 27.1114 4.33501C27.1263 3.72482 27.7727 3.09984 29.2139 3.09984C30.4006 3.06923 31.2725 3.35891 31.9331 3.6488L32.2632 3.80105L32.7597 0.705115V0.705115Z" fill="#0267BB"/>
<path d="M37.6113 9.61249C37.912 8.78884 39.0687 5.60107 39.0687 5.60107C39.0536 5.63168 39.3687 4.76222 39.549 4.22846L39.8041 5.46383C39.8041 5.46383 40.4954 8.89567 40.6455 9.61249C40.075 9.61249 38.3323 9.61249 37.6113 9.61249ZM42.1172 0.354492H39.2937C38.423 0.354492 37.7614 0.613568 37.3858 1.54405L31.9636 14.6914H35.7938C35.7938 14.6914 36.4244 12.9219 36.56 12.5408C36.9801 12.5408 40.7062 12.5408 41.2467 12.5408C41.3515 13.0441 41.6823 14.6914 41.6823 14.6914H45.0622L42.1172 0.354492V0.354492Z" fill="#0267BB"/>
<path d="M12.8276 0.354492L9.2527 10.131L8.86205 8.14824C8.20112 5.86035 6.12832 3.37461 3.81519 2.13863L7.08967 14.6764H10.9498L16.6876 0.354492H12.8276V0.354492Z" fill="#0267BB"/>
<path d="M5.93316 0.354492H0.0600838L0 0.644178C4.58136 1.83394 7.61551 4.70181 8.86211 8.14885L7.58537 1.55966C7.37517 0.643975 6.72922 0.384697 5.93316 0.354492Z" fill="#FAA61A"/>
</svg>
