<svg width="40" height="40" viewBox="0 0 40 40" fill="none" xmlns="http://www.w3.org/2000/svg">
<rect width="40" height="40" rx="8" fill="#202342"/>
<path d="M26.75 17.75C26.75 15.9598 26.0388 14.2429 24.773 12.977C23.5071 11.7112 21.7902 11 20 11C18.2098 11 16.4929 11.7112 15.227 12.977C13.9612 14.2429 13.25 15.9598 13.25 17.75C13.25 20.519 15.4655 24.128 20 28.451C24.5345 24.128 26.75 20.519 26.75 17.75ZM20 30.5C14.4995 25.5005 11.75 21.2495 11.75 17.75C11.75 15.562 12.6192 13.4635 14.1664 11.9164C15.7135 10.3692 17.812 9.5 20 9.5C22.188 9.5 24.2865 10.3692 25.8336 11.9164C27.3808 13.4635 28.25 15.562 28.25 17.75C28.25 21.2495 25.5005 25.5005 20 30.5Z" fill="#5A63D3"/>
<path d="M20 20C20.5967 20 21.169 19.7629 21.591 19.341C22.0129 18.919 22.25 18.3467 22.25 17.75C22.25 17.1533 22.0129 16.581 21.591 16.159C21.169 15.7371 20.5967 15.5 20 15.5C19.4033 15.5 18.831 15.7371 18.409 16.159C17.9871 16.581 17.75 17.1533 17.75 17.75C17.75 18.3467 17.9871 18.919 18.409 19.341C18.831 19.7629 19.4033 20 20 20ZM20 21.5C19.0054 21.5 18.0516 21.1049 17.3483 20.4017C16.6451 19.6984 16.25 18.7446 16.25 17.75C16.25 16.7554 16.6451 15.8016 17.3483 15.0983C18.0516 14.3951 19.0054 14 20 14C20.9946 14 21.9484 14.3951 22.6517 15.0983C23.3549 15.8016 23.75 16.7554 23.75 17.75C23.75 18.7446 23.3549 19.6984 22.6517 20.4017C21.9484 21.1049 20.9946 21.5 20 21.5Z" fill="#5A63D3"/>
</svg>
